<?xml version="1.0" encoding="UTF-8" standalone="no"?>
<!-- Created with Inkscape (http://www.inkscape.org/) -->

<svg
   xmlns:dc="http://purl.org/dc/elements/1.1/"
   xmlns:cc="http://creativecommons.org/ns#"
   xmlns:rdf="http://www.w3.org/1999/02/22-rdf-syntax-ns#"
   xmlns:svg="http://www.w3.org/2000/svg"
   xmlns="http://www.w3.org/2000/svg"
   xmlns:sodipodi="http://sodipodi.sourceforge.net/DTD/sodipodi-0.dtd"
   xmlns:inkscape="http://www.inkscape.org/namespaces/inkscape"
   width="700mm"
   height="45.185001mm"
   viewBox="0 0 700 45.185001"
   version="1.1"
   id="svg3569"
   inkscape:version="0.92.5 (2060ec1f9f, 2020-04-08)"
   sodipodi:docname="background-curv.svg">
  <defs
     id="defs3563" />
  <sodipodi:namedview
     id="base"
     pagecolor="#ffffff"
     bordercolor="#666666"
     borderopacity="1.0"
     inkscape:pageopacity="0.0"
     inkscape:pageshadow="2"
     inkscape:zoom="0.98994949"
     inkscape:cx="739.89207"
     inkscape:cy="60.283858"
     inkscape:document-units="mm"
     inkscape:current-layer="layer1"
     showgrid="false"
     inkscape:window-width="1366"
     inkscape:window-height="704"
     inkscape:window-x="1366"
     inkscape:window-y="27"
     inkscape:window-maximized="1" />
  <metadata
     id="metadata3566">
    <rdf:RDF>
      <cc:Work
         rdf:about="">
        <dc:format>image/svg+xml</dc:format>
        <dc:type
           rdf:resource="http://purl.org/dc/dcmitype/StillImage" />
        <dc:title></dc:title>
      </cc:Work>
    </rdf:RDF>
  </metadata>
  <g
     inkscape:label="Layer 1"
     inkscape:groupmode="layer"
     id="layer1"
     transform="translate(0,-251.815)">
    <path
       style="fill:#ffffff;stroke-width:1.51585531"
       d="m 4.15e-4,251.81568 v 8.87588 c 5.30383,0.58975 10.6052,1.40456 15.90003,2.49869 24.62441,5.08506 49.0745,4.12267 73.47609,-1.85174 12.131715,-2.96945 24.395665,-5.54888 36.720245,-7.56721 29.55447,-4.84278 58.34222,-0.13955 86.73205,8.02713 19.32953,5.55837 38.50807,11.67898 57.91436,16.95055 30.03726,8.16134 60.57647,11.58785 91.4415,5.82235 20.0533,-3.74757 40.0165,-8.20389 59.75425,-13.36877 39.24487,-10.26815 78.82184,-13.799 118.68646,-5.47808 26.81345,5.59804 53.24824,13.02749 79.79983,19.84685 21.87679,5.61907 43.73881,11.34471 66.51423,11.42797 4.46344,0.0172 8.81967,-0.28425 13.06013,-0.90508 v -44.27854 z"
       id="rect3577"
       inkscape:connector-curvature="0" />
  </g>
</svg>
