<?xml version="1.0" encoding="UTF-8" standalone="no"?>
<!-- Created with Inkscape (http://www.inkscape.org/) -->

<svg
   xmlns:dc="http://purl.org/dc/elements/1.1/"
   xmlns:cc="http://creativecommons.org/ns#"
   xmlns:rdf="http://www.w3.org/1999/02/22-rdf-syntax-ns#"
   xmlns:svg="http://www.w3.org/2000/svg"
   xmlns="http://www.w3.org/2000/svg"
   xmlns:sodipodi="http://sodipodi.sourceforge.net/DTD/sodipodi-0.dtd"
   xmlns:inkscape="http://www.inkscape.org/namespaces/inkscape"
   width="33.080002mm"
   height="23.214001mm"
   viewBox="0 0 33.080002 23.214001"
   version="1.1"
   id="svg13518"
   inkscape:version="0.92.5 (2060ec1f9f, 2020-04-08)"
   sodipodi:docname="board.svg">
  <defs
     id="defs13512" />
  <sodipodi:namedview
     id="base"
     pagecolor="#ffffff"
     bordercolor="#666666"
     borderopacity="1.0"
     inkscape:pageopacity="0.0"
     inkscape:pageshadow="2"
     inkscape:zoom="3.959798"
     inkscape:cx="73.129549"
     inkscape:cy="38.769921"
     inkscape:document-units="mm"
     inkscape:current-layer="layer1"
     showgrid="false"
     inkscape:window-width="677"
     inkscape:window-height="420"
     inkscape:window-x="685"
     inkscape:window-y="4"
     inkscape:window-maximized="0" />
  <metadata
     id="metadata13515">
    <rdf:RDF>
      <cc:Work
         rdf:about="">
        <dc:format>image/svg+xml</dc:format>
        <dc:type
           rdf:resource="http://purl.org/dc/dcmitype/StillImage" />
        <dc:title></dc:title>
      </cc:Work>
    </rdf:RDF>
  </metadata>
  <g
     inkscape:label="Layer 1"
     inkscape:groupmode="layer"
     id="layer1"
     transform="translate(0,-273.786)">
    <path
       inkscape:connector-curvature="0"
       id="path13477"
       d="m 21.616584,281.95974 q -0.34301,0.0615 -0.46802,0.16388 -0.125,0.10242 -0.10744,0.29227 0.014,0.15127 0.12071,0.22316 0.10812,0.0701 0.27886,0.0395 0.23534,-0.0422 0.36143,-0.23422 0.1275,-0.19388 0.1018,-0.47171 l -0.006,-0.0633 z m 0.55366,-0.21846 0.0912,0.98632 -0.28302,0.0507 -0.0243,-0.2624 q -0.0824,0.1748 -0.21994,0.27634 -0.13774,0.1 -0.34693,0.13748 -0.26457,0.0474 -0.43517,-0.0727 -0.1692,-0.12189 -0.19233,-0.37194 -0.027,-0.29173 0.15313,-0.47463 0.18165,-0.18318 0.56773,-0.25236 l 0.39685,-0.0711 -0.003,-0.0278 q -0.0181,-0.19603 -0.15715,-0.27938 -0.13766,-0.0852 -0.36993,-0.0436 -0.14766,0.0265 -0.28435,0.087 -0.1367,0.0606 -0.25934,0.15474 l -0.0243,-0.2624 q 0.14978,-0.088 0.2932,-0.14355 0.14327,-0.0571 0.28171,-0.0819 0.37378,-0.067 0.57634,0.0944 0.20257,0.16141 0.23912,0.55655 z m -1.71812,-0.39511 0.0248,0.26857 q -0.12569,-0.0402 -0.25775,-0.048 -0.13206,-0.008 -0.2705,0.0171 -0.21073,0.0378 -0.31087,0.1216 -0.0986,0.0836 -0.0866,0.21323 0.009,0.0988 0.0898,0.14239 0.0805,0.0421 0.31287,0.0522 l 0.0989,0.004 q 0.30748,0.0108 0.4446,0.10706 0.13852,0.0944 0.15808,0.3059 0.0223,0.24079 -0.15548,0.41543 -0.1762,0.17436 -0.50845,0.23389 -0.13844,0.0248 -0.29175,0.024 -0.15163,5.1e-4 -0.32275,-0.0238 l -0.0271,-0.29327 q 0.16446,0.0537 0.3206,0.0681 0.15599,0.0129 0.30519,-0.0139 0.19997,-0.0358 0.30136,-0.12304 0.10125,-0.0888 0.0897,-0.21377 -0.0107,-0.11577 -0.0949,-0.16345 -0.0826,-0.048 -0.35093,-0.058 l -0.1006,-0.006 q -0.26816,-0.008 -0.39563,-0.10172 -0.12761,-0.0948 -0.14616,-0.29547 -0.0226,-0.24388 0.13744,-0.40749 0.16,-0.16361 0.47687,-0.22039 0.15689,-0.0281 0.29747,-0.0298 0.14058,-0.002 0.26176,0.0237 z m -1.40499,0.25173 0.0248,0.26858 q -0.12569,-0.0402 -0.25775,-0.048 -0.13206,-0.008 -0.2705,0.0171 -0.21073,0.0378 -0.31087,0.1216 -0.0986,0.0836 -0.0866,0.21323 0.009,0.0988 0.0898,0.14239 0.0805,0.0421 0.31287,0.0522 l 0.0989,0.004 q 0.30748,0.0108 0.44461,0.10706 0.13851,0.0944 0.15807,0.3059 0.0223,0.24079 -0.15547,0.41542 -0.17621,0.17436 -0.50846,0.23389 -0.13843,0.0248 -0.29174,0.024 -0.15164,5e-4 -0.32276,-0.0238 l -0.0271,-0.29327 q 0.16446,0.0537 0.3206,0.0681 0.15599,0.0128 0.30519,-0.0139 0.19997,-0.0358 0.30136,-0.12304 0.10125,-0.0888 0.0897,-0.21378 -0.0107,-0.11576 -0.0949,-0.16345 -0.0826,-0.048 -0.35093,-0.0579 l -0.10059,-0.006 q -0.26817,-0.008 -0.39564,-0.10172 -0.1276,-0.0948 -0.14616,-0.29548 -0.0226,-0.24387 0.13744,-0.40749 0.16,-0.16361 0.47687,-0.22038 0.15689,-0.0281 0.29747,-0.0298 0.14058,-0.002 0.26176,0.0237 z m -2.12754,0.53184 q -0.22765,0.0408 -0.34338,0.24354 -0.11586,0.20121 -0.0872,0.51145 0.0287,0.31025 0.176,0.46588 0.1487,0.1538 0.37789,0.11274 0.22611,-0.0405 0.34184,-0.24327 0.11572,-0.20275 0.0872,-0.51145 -0.0284,-0.30717 -0.17725,-0.46251 -0.14899,-0.1569 -0.3751,-0.11638 z m -0.0223,-0.24079 q 0.36916,-0.0662 0.60216,0.13689 0.233,0.20303 0.2724,0.62904 0.0393,0.42447 -0.14906,0.70456 -0.18846,0.27855 -0.55763,0.3447 -0.3707,0.0664 -0.6037,-0.13662 -0.2316,-0.20485 -0.27086,-0.62932 -0.0394,-0.42601 0.14753,-0.70428 0.18846,-0.27855 0.55916,-0.34497 z m -2.80899,-0.0396 0.41839,-0.075 1.19657,1.74542 -0.1783,-1.92787 0.30149,-0.054 0.21312,2.30449 -0.41838,0.075 -1.19657,-1.74542 0.17829,1.92787 -0.30148,0.054 z m 14.082928,1.47376 q -0.32697,0.0586 -0.47814,0.32672 -0.14869,0.26489 -0.10763,0.7088 0.0411,0.44392 0.23334,0.65052 0.19478,0.20335 0.52175,0.14477 0.32148,-0.0576 0.47016,-0.3225 0.14843,-0.26764 0.10737,-0.71156 -0.041,-0.44391 -0.23308,-0.64775 -0.19229,-0.2066 -0.51377,-0.149 z m -0.0653,-0.70586 q 0.79408,-0.14227 1.27899,0.2081 0.48765,0.34988 0.55803,1.11088 0.0704,0.761 -0.33771,1.27137 -0.40535,0.50989 -1.19943,0.65217 -0.79683,0.14277 -1.28723,-0.20662 -0.48766,-0.34988 -0.55803,-1.11088 -0.0704,-0.761 0.33771,-1.27138 0.41084,-0.51086 1.20767,-0.65364 z m -1.8535,1.63546 0.17391,1.88044 -0.98917,0.17723 -0.0283,-0.30605 -0.10429,-1.12771 q -0.0375,-0.40532 -0.0707,-0.55352 -0.0305,-0.14869 -0.0811,-0.2125 -0.0666,-0.0862 -0.17039,-0.12083 -0.10401,-0.0374 -0.23041,-0.0148 -0.30774,0.0551 -0.4614,0.32653 -0.15393,0.26863 -0.11491,0.69048 l 0.1405,1.51924 -0.98367,0.17625 -0.39678,-4.29026 0.98367,-0.17625 0.153,1.65434 q 0.19758,-0.31008 0.43589,-0.48172 0.23805,-0.17439 0.5403,-0.22854 0.53305,-0.0955 0.83816,0.18337 0.30786,0.27839 0.36575,0.90428 z m -3.601448,0.64529 0.173908,1.88044 -0.989168,0.17723 -0.0283,-0.30605 -0.1048,-1.13323 q -0.037,-0.3998 -0.0702,-0.548 -0.0305,-0.1487 -0.0811,-0.21251 -0.0666,-0.0862 -0.17039,-0.12083 -0.10401,-0.0374 -0.23041,-0.0148 -0.30774,0.0551 -0.46141,0.32653 -0.15392,0.26863 -0.1149,0.69049 l 0.1405,1.51924 -0.98367,0.17624 -0.2856,-3.0881 0.98367,-0.17625 0.0418,0.45219 q 0.19757,-0.31009 0.43588,-0.48172 0.23806,-0.17439 0.5403,-0.22855 0.53306,-0.0955 0.83817,0.18337 0.30786,0.27839 0.36575,0.90428 z m -5.0399,1.40194 q -0.30774,0.0551 -0.45467,0.18797 -0.14418,0.13235 -0.12531,0.33638 0.0174,0.1875 0.15093,0.27287 0.13608,0.0821 0.35865,0.0422 0.27751,-0.0497 0.44875,-0.28221 0.17097,-0.23525 0.14317,-0.53579 l -0.0104,-0.11304 z m 1.46856,-0.64152 0.16294,1.76187 -0.99191,0.17773 -0.0423,-0.4577 q -0.17183,0.31668 -0.40713,0.49058 -0.23556,0.17114 -0.59002,0.23465 -0.47809,0.0857 -0.80334,-0.13916 -0.32277,-0.22807 -0.36407,-0.67474 -0.0502,-0.54318 0.29724,-0.86331 0.35022,-0.32061 1.14705,-0.46339 l 0.57976,-0.10388 -0.007,-0.0772 q -0.0217,-0.23436 -0.21571,-0.30891 -0.19429,-0.0773 -0.58447,-0.007 -0.31598,0.0566 -0.58214,0.16877 -0.26615,0.11216 -0.48798,0.28084 l -0.0696,-0.75273 q 0.30885,-0.13382 0.62401,-0.22953 0.3149,-0.0985 0.63364,-0.15557 0.83255,-0.14917 1.23134,0.11573 0.40128,0.26165 0.46988,1.00334 z m -4.6971,1.98519 q 0.31599,-0.0566 0.45943,-0.31777 0.14619,-0.26164 0.10539,-0.7028 -0.0408,-0.44115 -0.22983,-0.64273 -0.18628,-0.20207 -0.50227,-0.14545 -0.31598,0.0566 -0.46466,0.3215 -0.14619,0.26164 -0.10565,0.70004 0.0405,0.4384 0.22983,0.64274 0.19178,0.20108 0.50776,0.14447 z m -0.83882,-1.88183 q 0.17834,-0.30664 0.4139,-0.47778 0.23531,-0.1739 0.55679,-0.2315 0.56877,-0.10191 0.97629,0.28756 0.40726,0.3867 0.47331,1.10083 0.066,0.71413 -0.25733,1.23455 -0.32362,0.51766 -0.8924,0.61957 -0.32147,0.0576 -0.58049,-0.0249 -0.25928,-0.0853 -0.4876,-0.31906 l 0.0413,0.44667 -0.98368,0.17625 -0.39677,-4.29026 0.98367,-0.17625 z m -1.15414,1.30834 0.026,0.28124 -2.29981,0.41206 q 0.0678,0.34102 0.29823,0.47632 0.23039,0.13531 0.61506,0.0664 0.31049,-0.0556 0.6263,-0.20471 0.31831,-0.15233 0.64443,-0.40136 l 0.0704,0.761 q -0.33672,0.19487 -0.67955,0.32357 -0.34258,0.13145 -0.69154,0.19398 -0.8353,0.14966 -1.3389298,-0.19176 -0.50113,-0.34466 -0.57228,-1.11393 -0.0699,-0.75548 0.34347,-1.2696 0.41608,-0.51461 1.2129098,-0.65738 0.72539,-0.12997 1.20007,0.23064 0.47742,0.36013 0.54526,1.09355 z m -1.04149,-0.14694 q -0.026,-0.28124 -0.20668,-0.42265 -0.17818,-0.14466 -0.44196,-0.0974 -0.28576,0.0512 -0.44932,0.24588 -0.1638,0.19192 -0.17972,0.50309 z m -4.6372098,0.41323 q 0.33247,-0.0596 0.46387,-0.20925 0.13416,-0.15017 0.10789,-0.43416 -0.026,-0.28124 -0.18286,-0.37647 -0.1541,-0.0957 -0.48656,-0.0361 l -0.44513,0.0797 0.0977,1.05602 z m -0.3773,0.81318 0.14408,1.55784 -1.05787,0.18954 -0.38071,-4.11656 1.61564,-0.28948 q 0.81057,-0.14523 1.21225,0.0603 0.40443,0.20503 0.459,0.79508 0.0377,0.40807 -0.13587,0.70545 -0.17087,0.29689 -0.55506,0.49186 0.22166,0.0107 0.40834,0.15668 0.18917,0.14269 0.39791,0.46687 l 0.68239,1.06617 -1.12655,0.20185 -0.59468,-0.93333 q -0.17969,-0.28174 -0.34676,-0.36672 -0.16433,-0.0855 -0.42261,-0.0392 z m 20.8914478,-9.75277 c -0.12149,0.0964 -0.1876,0.188 -0.26948,0.20539 -0.13812,0.0293 -0.23382,-0.0648 -0.2358,-0.20369 -0.002,-0.14228 0.0964,-0.23051 0.23428,-0.2007 0.082,0.0178 0.14891,0.10562 0.271,0.199 m -6.011608,1.05291 c -0.13748,0.1113 -0.202,0.2014 -0.28378,0.2215 -0.14372,0.0351 -0.24419,-0.0658 -0.22701,-0.20129 0.0101,-0.0804 0.11469,-0.2075 0.17812,-0.20842 0.0895,-0.001 0.18009,0.0954 0.33267,0.18821 m 2.564728,-0.3695 c -0.14923,0.0963 -0.23802,0.19639 -0.32812,0.19748 -0.0657,10e-4 -0.1802,-0.12277 -0.18941,-0.20087 -0.0151,-0.1282 0.0776,-0.24483 0.22501,-0.2141 0.0838,0.0175 0.15211,0.10897 0.29252,0.21749 m -8.545408,1.5181 c -0.16651,0.11561 -0.2637,0.2346 -0.3435,0.22391 -0.0788,-0.0105 -0.1742,-0.1446 -0.19512,-0.23943 -0.011,-0.0496 0.12361,-0.18637 0.19001,-0.18468 0.092,0.002 0.18161,0.0979 0.34861,0.2002 m -5.2436198,1.0631 c -0.1131,-0.1633 -0.21329,-0.24751 -0.22098,-0.33941 -0.006,-0.0672 0.1245,-0.213 0.1686,-0.20359 0.0939,0.0201 0.2240798,0.10739 0.2403098,0.18729 0.0162,0.0789 -0.09,0.18271 -0.1879298,0.35571 m 8.9864198,-1.96391 c -0.14891,0.0821 -0.2436,0.1731 -0.33832,0.1731 -0.0652,0 -0.16707,-0.11729 -0.1869,-0.19808 -0.0321,-0.13042 0.13981,-0.27503 0.26233,-0.22483 0.0828,0.034 0.14047,0.12933 0.26289,0.24981 m 9.454408,-1.72819 c 0.0892,0.16909 0.19018,0.27351 0.17459,0.35588 -0.0154,0.081 -0.14909,0.1397 -0.23079,0.20803 -0.0704,-0.0848 -0.19361,-0.1682 -0.19583,-0.25481 -0.002,-0.0798 0.12573,-0.16291 0.25203,-0.3091 m -2.9754,0.77318 c -0.14312,0.11483 -0.21742,0.20913 -0.31292,0.24211 -0.11849,0.0411 -0.29008,-0.12319 -0.24539,-0.23759 0.0354,-0.0906 0.14521,-0.2002 0.23128,-0.20892 0.0818,-0.008 0.17572,0.10361 0.32703,0.2044 m -20.7801278,3.6159 c -0.19547,0.11342 -0.29249,0.20962 -0.39927,0.22211 -0.15343,0.0178 -0.26741,-0.10428 -0.23541,-0.2517 0.0182,-0.084 0.1548,-0.19968 0.23639,-0.1983 0.10231,0.002 0.20282,0.1089 0.39829,0.22789 m 1.50132,-0.3937 c -0.14542,0.12683 -0.21682,0.23033 -0.31211,0.26233 -0.12989,0.0436 -0.24309,-0.0334 -0.2632,-0.1772 -0.0218,-0.15692 0.051,-0.28473 0.21812,-0.27411 0.0974,0.006 0.18948,0.0962 0.35719,0.18898 m 1.87011,-0.13948 c -0.19361,0.1119 -0.29133,0.20658 -0.40062,0.22249 -0.156,0.0227 -0.2576,-0.0895 -0.25379,-0.248 0.004,-0.16369 0.12401,-0.25869 0.2721,-0.22839 0.1077,0.022 0.1984,0.1269 0.38231,0.2539 m 4.2250798,-0.90841 c -0.0169,0.2291 -0.15879,0.3416 -0.32008,0.3186 -0.16192,-0.0231 -0.23213,-0.12891 -0.2274,-0.28159 0.005,-0.15681 0.16838,-0.2999 0.30649,-0.24462 0.10591,0.0424 0.18359,0.15561 0.24099,0.20761 m 4.36982,-0.41359 c -0.1198,-0.20091 -0.23562,-0.31271 -0.24592,-0.43339 -0.0126,-0.1475 0.1185,-0.23862 0.2789,-0.23273 0.16161,0.006 0.2829,0.11081 0.25661,0.25492 -0.0217,0.12001 -0.14922,0.2208 -0.28959,0.4112 m 13.854078,-0.9192 c -0.0106,-0.24342 -0.0228,-0.48669 -0.0312,-0.73011 -0.004,-0.1065 -0.0132,-0.2153 0.003,-0.3193 0.0235,-0.1488 0.0464,-0.3272 0.25498,-0.3138 0.18419,0.012 0.18521,0.17671 0.19509,0.31189 0.0433,0.59281 0.0739,1.18661 0.1246,1.77871 0.10022,1.16872 0.21181,2.33641 0.31531,3.50481 0.0106,0.12051 0.0256,0.2522 -0.0115,0.3617 -0.0281,0.0831 -0.1312,0.18691 -0.20919,0.19428 -0.0792,0.007 -0.19692,-0.0739 -0.24571,-0.14958 -0.0533,-0.083 -0.0566,-0.20352 -0.0654,-0.309 -0.11381,-1.382 -0.2249,-2.76412 -0.33578,-4.1463 -0.005,-0.0605 -7.9e-4,-0.12192 -7.9e-4,-0.18281 0.002,-2.1e-4 0.004,-2.9e-4 0.006,-3.4e-4 m -27.6593078,3.98356 c 0.004,-0.0333 -0.005,-0.11592 0.0243,-0.1809 0.0279,-0.0613 0.0932,-0.14122 0.14792,-0.14601 0.0772,-0.007 0.1953,0.0251 0.2322,0.0819 0.0628,0.097 0.0928,0.22398 0.10809,0.34209 0.21918,1.70561 0.43381,3.41189 0.6494,5.11799 0.0267,0.21121 0.0634,0.42182 0.0781,0.6338 0.0183,0.26222 -0.0725,0.40171 -0.25259,0.40732 -0.213,0.006 -0.29061,-0.13289 -0.31432,-0.31771 -0.0483,-0.37709 -0.0985,-0.75399 -0.14118,-1.13168 -0.17272,-1.52731 -0.3428,-3.05481 -0.51351,-4.58223 -0.007,-0.0606 -0.01,-0.12139 -0.0184,-0.22458 m 8.1908998,-6.35822 c 0.0512,0.035 0.15173,0.0785 0.21692,0.15282 0.30099,0.34279 0.59281,0.69349 0.88611,1.04288 0.1,0.11899 0.12929,0.26991 0.0115,0.36872 -0.0899,0.0755 -0.2365,0.099 -0.36132,0.11067 -0.0609,0.006 -0.1459,-0.0538 -0.19191,-0.10777 -0.28589,-0.33581 -0.5812,-0.6658 -0.83837,-1.02302 -0.1759,-0.2442 -0.0345,-0.53439 0.27707,-0.5443 m 1.93213,-1.17871 c 0.12478,0.11533 0.23237,0.1778 0.28649,0.27111 0.25008,0.43191 0.4875,0.87112 0.72379,1.31071 0.042,0.078 0.0977,0.18299 0.0757,0.2533 -0.0365,0.11659 -0.10922,0.25608 -0.20771,0.3078 -0.0744,0.0391 -0.27139,-0.008 -0.31348,-0.0781 -0.29662,-0.49039 -0.57132,-0.9943 -0.8412,-1.50018 -0.0379,-0.071 -0.0449,-0.19431 -0.008,-0.26131 0.0576,-0.10431 0.1651,-0.18111 0.28431,-0.30332 m 6.43638,-0.2238 c -0.0764,0.61902 -0.15141,1.23822 -0.2311,1.85671 -0.01,0.0734 -0.0243,0.173 -0.074,0.20859 -0.10079,0.0725 -0.22599,0.14821 -0.3434,0.15191 -0.1591,0.005 -0.23579,-0.13201 -0.22708,-0.28518 0.0141,-0.24272 0.043,-0.48462 0.0694,-0.72652 0.0494,-0.45338 0.0998,-0.90688 0.15349,-1.35978 0.0125,-0.1052 0.008,-0.23671 0.0691,-0.3054 0.0795,-0.0898 0.21629,-0.17533 0.32781,-0.17452 0.0813,7.1e-4 0.2008,0.13099 0.23219,0.22691 0.0404,0.12319 0.01,0.2697 0.01,0.40619 0.005,3.6e-4 0.009,7.1e-4 0.0137,10e-4 m 2.37219,-0.31295 c -0.1784,0.59161 -0.38171,1.27649 -0.59489,1.9583 -0.0256,0.0818 -0.0958,0.156 -0.16052,0.2177 -0.12678,0.12129 -0.2964,0.13829 -0.41049,0.0222 -0.0778,-0.0792 -0.12918,-0.2499 -0.1016,-0.35609 0.16422,-0.63119 0.35419,-1.25561 0.53721,-1.88179 0.0256,-0.0875 0.0519,-0.17642 0.0924,-0.25742 0.0847,-0.16919 0.2232,-0.25111 0.4124,-0.19699 0.19639,0.0561 0.23961,0.2117 0.22549,0.4941 m -5.23158,2.4601 c 0.007,0.2474 -0.10421,0.40541 -0.3059,0.43638 -0.20051,0.0308 -0.35679,-0.071 -0.42259,-0.3229 -0.0766,-0.29287 -0.1458,-0.59157 -0.17593,-0.89189 -0.0968,-0.96608 -0.17547,-1.934 -0.257,-2.90138 -0.008,-0.0885 -0.0171,-0.20363 0.0294,-0.26349 0.0767,-0.0988 0.19618,-0.22091 0.30181,-0.22493 0.10295,-0.004 0.23398,0.11003 0.30947,0.20612 0.0583,0.0742 0.0569,0.20021 0.0698,0.30459 0.14711,1.189 0.29171,2.37829 0.43723,3.5675 0.004,0.0302 0.009,0.06 0.0137,0.09 m 15.489098,-1.7453 c 0.30159,0.4494 0.25699,0.955 0.30631,1.42709 0.25968,2.48532 0.4855,4.9741 0.73858,7.46002 0.0436,0.42777 -0.0453,0.81558 -0.2032,1.1981 -0.1916,0.46457 -0.4022,0.92138 -0.58879,1.3879 -0.10611,0.26518 -0.24899,0.43257 -0.5389,0.55298 -0.85602,0.3556 -1.686,0.77403 -2.52691,1.166 -0.10979,0.0511 -0.2244,0.092 -0.3519,0.14383 -0.26321,0.92738 -0.55478,1.85649 -0.78821,2.79989 -0.33697,1.3613 -0.83929,2.6641 -1.32207,3.9751 -0.0522,0.14188 -0.0794,0.29287 -0.12672,0.43688 -0.0812,0.24761 -0.30399,0.32381 -0.49251,0.1477 -0.1542,-0.14418 -0.27817,-0.32279 -0.40467,-0.49399 -0.97762,-1.32309 -1.95263,-2.6483 -2.953528,-4.00681 -0.5437,0.0894 -1.1122,0.18122 -1.68,0.27671 -2.50828,0.422 -5.01607,0.84611 -7.52457,1.26711 -2.1627,0.36297 -4.3263998,0.72037 -6.4889198,1.08458 -1.77098,0.29831 -3.54038,0.6065 -5.3116,0.90332 -0.48239,0.0808 -0.5558,0.008 -0.6084,-0.47342 -0.26469004,-2.42348 -0.53210004,-4.84678 -0.80028004,-7.26991 -0.1174,-1.05999 -0.2467,-2.11878 -0.35151,-3.17986 -0.0201,-0.20313 0.008,-0.43251 0.0855,-0.61973 0.26342,-0.63249 0.55753,-1.25218 0.84321,-1.8753 0.19660004,-0.4288 0.50680004,-0.65948 0.99822004,-0.74739 3.74819,-0.67059 7.4912,-1.3703 11.2364998,-2.0568 3.40007,-0.62329 6.8017,-1.23822 10.201768,-1.86231 2.6368,-0.48387 5.27223,-0.97529 7.90783,-1.4665 0.25069,-0.0468 0.49728,-0.11638 0.74479,-0.17519 z M 2.7815742,292.81107 v 0 c 0.10967,-0.0114 0.15458,-0.0118 0.19748,-0.021 3.0656,-0.6627 6.13011,-1.33051 9.1968098,-1.98819 3.78118,-0.81111 7.56398,-1.61452 11.346608,-2.41921 0.38727,-0.0824 0.7754,-0.16351 1.16649,-0.22331 0.36181,-0.0552 0.51791,0.089 0.42728,0.42291 -0.0512,0.18899 0.005,0.3228 0.0669,0.47509 0.58159,1.42311 1.16269,2.8466 1.74618,4.269 0.0375,0.0916 0.0942,0.1754 0.17163,0.31743 0.13328,-0.47283 0.2486,-0.88233 0.3641,-1.29173 0.47149,-1.67101 0.95197,-3.33968 1.406,-5.01559 0.076,-0.28049 0.1863,-0.45321 0.4621,-0.55389 0.6863,-0.2504 1.36479,-0.52239 2.0453,-0.7885 0.36428,-0.14241 0.7262,-0.29051 1.09827,-0.4397 -0.257,-2.9023 -0.5104,-5.76231 -0.76888,-8.6813 -10.066188,1.8173 -20.070618,3.62339 -30.1249978,5.4385 0.40079,3.51028 0.7976,6.9856 1.19871,10.49947 z m -1.16611,1.78872 v 0 c 0.0331,0.006 0.0663,0.0122 0.0995,0.0182 0.17022,-0.38453 0.3441,-0.7674 0.50673,-1.1551 0.0266,-0.0634 0.0115,-0.14841 0.003,-0.22183 -0.0784,-0.64949 -0.16838,-1.29779 -0.23858,-1.94807 -0.22881,-2.1197 -0.44972,-4.24032 -0.67582,-6.3603 -0.0479,-0.4481 -0.10481,-0.8951 -0.16171,-1.37802 -0.57048004,0.75682 -0.68358004,1.19451 -0.58547004,2.0162 0.17339,1.45171 0.33059,2.90523 0.49960004,4.3574 0.18129,1.55752 0.36837,3.11439 0.55309,4.67152 z m 20.8816898,-5.17811 v 0 c -0.0242,-0.0289 -0.0483,-0.0579 -0.0724,-0.0868 -0.5335,0.11123 -1.06549,0.22991 -1.60101,0.33031 -0.2323,0.0436 -0.3659,0.16901 -0.4789,0.3707 -0.3424,0.61132 -0.7059,1.2108 -1.0584,1.81641 -0.0732,0.1257 -0.1348,0.2581 -0.23079,0.44369 0.6512,-0.11098 1.2336,-0.21541 1.81801,-0.30741 0.20718,-0.0328 0.3115,-0.1615 0.40269,-0.33027 0.3114,-0.5763 0.63021,-1.1485 0.9452,-1.72283 0.0934,-0.17039 0.1838,-0.34247 0.27559,-0.51378 z m -7.5546,3.47979 v 0 c 0.0232,0.03 0.0461,0.0601 0.0692,0.0903 0.56508,-0.0978 1.12939,-0.20052 1.6956,-0.29083 0.20581,-0.0327 0.25608,-0.1887 0.32448,-0.34068 0.2618,-0.5818 0.52592,-1.16261 0.7861,-1.74519 0.0399,-0.0892 0.0637,-0.18563 0.1113,-0.32762 -0.5703,0.11652 -1.08868,0.21709 -1.60398,0.33221 -0.0946,0.0212 -0.21519,0.0798 -0.25753,0.15719 -0.38339,0.70362 -0.75208,1.41521 -1.12518,2.12461 z m 17.332008,-6.56901 v 0 c -0.17219,0.0467 -0.27121,0.0656 -0.36431,0.10019 -0.59838,0.22292 -1.19571,0.44881 -1.79299,0.67451 -0.64351,0.24321 -0.65222,0.24109 -0.84431,0.91772 -0.0788,0.27728 -0.1954,0.55439 -0.17159,0.90597 0.8594,-0.42418 1.67668,-0.82628 2.4921,-1.23218 0.0656,-0.0326 0.1458,-0.0794 0.1724,-0.14009 0.1676,-0.3828 0.32201,-0.77142 0.5087,-1.22612 z m -18.759588,4.88481 v 0 c -0.51111,0.10178 -0.95243,0.1995 -1.39753,0.27439 -0.2516,0.0423 -0.39469,0.17699 -0.50077,0.401 -0.18253,0.38481 -0.3871,0.75929 -0.586,1.1362 -0.11751,0.2227 -0.2419,0.44171 -0.40633,0.74101 0.511,-0.0934 0.92481,-0.18811 1.34402,-0.2387 0.27781,-0.0335 0.41959,-0.1718 0.53858,-0.40993 0.23802,-0.47617 0.50821,-0.93627 0.76193,-1.40469 0.0771,-0.14248 0.14369,-0.29068 0.2461,-0.49928 z m 2.01739,-0.42859 v 0 c -0.5051,0.104 -0.90681,0.1735 -1.29959,0.27707 -0.0955,0.0252 -0.18091,0.15121 -0.2376,0.25002 -0.31842,0.55361 -0.62823,1.11231 -0.9368,1.67149 -0.0541,0.098 -0.0891,0.20652 -0.16002,0.37462 0.46831,-0.0835 0.87129,-0.1446 1.26799,-0.23361 0.10142,-0.0228 0.219,-0.11469 0.26821,-0.20719 0.35599,-0.6696 0.69639,-1.34761 1.09781,-2.1324 z m 4.38468,-0.9187 v 0 c -0.49057,0.1016 -0.88639,0.1784 -1.27879,0.2697 -0.0633,0.0147 -0.13359,0.0837 -0.1634,0.14548 -0.35451,0.7384 -0.70199,1.48012 -1.07781,2.2769 0.3471,-0.0478 0.63391,-0.0667 0.90851,-0.1349 0.11331,-0.0282 0.2274,-0.14499 0.29439,-0.25111 0.19481,-0.30839 0.36601,-0.63157 0.54642,-0.94918 0.23901,-0.42062 0.47791,-0.84131 0.77068,-1.35689 z m 4.224118,-0.8945 v 0 c -0.25131,0.0479 -0.41091,0.0941 -0.57291,0.10547 -0.28959,0.0205 -0.4591,0.16422 -0.5903,0.42252 -0.233998,0.46091 -0.507608,0.9017 -0.759808,1.35358 -0.16898,0.30271 -0.3295,0.61012 -0.54088,1.0028 0.44178,-0.0886 0.79618,-0.15099 1.144798,-0.23689 0.0714,-0.0176 0.14178,-0.11342 0.17769,-0.18962 0.36911,-0.78376 0.73099,-1.57099 1.14141,-2.45787 z m -15.4202978,5.12049 v 0 c 0.46891,-0.0839 0.82649,-0.13659 1.17761,-0.21759 0.1038898,-0.024 0.2256698,-0.107 0.2774898,-0.19812 0.35691,-0.62868 0.6973,-1.26658 1.09298,-1.99319 -0.49668,0.0999 -0.89348,0.1748 -1.2872898,0.2637 -0.0619,0.014 -0.12788,0.0812 -0.16118,0.14089 -0.35172,0.63239 -0.69723,1.26842 -1.09961,2.00431 z m -3.481,0.60629 v 0 c 0.4391,-0.0773 0.7923,-0.15617 1.14999,-0.1966 0.2257,-0.0256 0.3479,-0.11928 0.43,-0.32911 0.18199,-0.46567 0.38819,-0.92188 0.58092,-1.3836 0.0368,-0.0883 0.057,-0.18369 0.0982,-0.31979 -0.42689,0.0857 -0.79847,0.14941 -1.16307,0.24081 -0.0993,0.0249 -0.21481,0.11511 -0.25982,0.2063 -0.27358,0.55619 -0.52899,1.12141 -0.83619,1.78199 z m 19.3804078,-5.3721 v 0 c -0.46023,0.935 -0.88293,1.7871 -1.29462,2.64442 -0.0308,0.0643 -0.009,0.18359 0.0334,0.24709 0.0952,0.1421 0.2189,0.26511 0.3598,0.4294 0.4283,-0.65892 0.8285,-1.2591 1.20748,-1.87251 0.0698,-0.11278 0.10083,-0.29238 0.0664,-0.41829 -0.0875,-0.31951 -0.22232,-0.62611 -0.37249,-1.03011 z m -15.3684078,2.79689 v 0 c -0.15942,0.0216 -0.24599,0.0415 -0.33302,0.0437 -0.61299,0.0154 -0.98848,0.30219 -1.16798,0.90611 -0.12241,0.4118 -0.33941,0.7953 -0.548,1.26848 0.2607,-0.036 0.4349,-0.0729 0.61058,-0.0813 0.27743,-0.0133 0.42683,-0.16351 0.537,-0.40481 0.14443,-0.31609 0.31733,-0.61919 0.47862,-0.92759 0.1306,-0.2498 0.26218,-0.49901 0.4228,-0.80462 z m -7.16072,3.10282 v 0 c 0.36643,-0.0652 0.6168,-0.12361 0.87062,-0.1507 0.2152,-0.0231 0.3114,-0.14521 0.3833,-0.329 0.1603,-0.40972 0.33489,-0.81362 0.49861,-1.22192 0.0355,-0.0886 0.0495,-0.18577 0.0855,-0.32657 -0.3357,0.0682 -0.61718,0.11857 -0.8944,0.18627 -0.0786,0.0192 -0.18168,0.0721 -0.2111,0.13762 -0.24109,0.53749 -0.46739,1.08158 -0.73251,1.7043 z m 23.1369978,-4.06449 v 0 c -0.42128,0.63539 -0.82818,1.24869 -1.23878,1.86768 0.1771,0.2329 0.32989,0.43402 0.50589,0.6654 0.23639,-0.32921 0.39959,-0.65401 0.6496,-0.88448 0.5321,-0.49033 0.50952,-1.00083 0.17071,-1.5652 -0.008,-0.0125 -0.0216,-0.0211 -0.0874,-0.0834 z m -19.6334878,1.71669 v 0 c -0.37638,0.0693 -0.6573,0.11179 -0.9326,0.1779 -0.076,0.0184 -0.16489,0.0941 -0.1971,0.16619 -0.24578,0.55161 -0.47911,1.10882 -0.74048,1.7211 0.30028,-0.0471 0.55389,-0.074 0.8001,-0.13219 0.0906,-0.0214 0.19847,-0.10001 0.2389,-0.18182 0.2733,-0.55227 0.53047,-1.11248 0.83118,-1.75119 z m 19.8136178,1.97128 v 0 c 0.24148,-0.39779 0.4789,-0.78228 0.70718,-1.17217 0.0342,-0.0586 0.0526,-0.15131 0.0321,-0.2129 -0.0872,-0.26342 -0.19181,-0.52102 -0.31958,-0.85863 -0.37931,0.5491 -0.70453,1.01971 -1.03523,1.49832 0.17191,0.23079 0.32421,0.4378 0.48031,0.64198 0.0247,0.0324 0.0664,0.0518 0.13522,0.1034 z m 0.99159,-0.681 v 0 c -0.1227,0.1941 -0.21862,0.34283 -0.3115,0.49333 -0.4403,0.7137 -0.44009,0.71398 0.1409,1.33367 0.009,0.01 0.0278,0.0115 0.0833,0.0328 0.0834,-0.25368 0.13462,-0.5243 0.25721,-0.7572 0.21001,-0.3986 0.0654,-0.71438 -0.1699,-1.10261"
       style="font-variant:normal;font-weight:normal;font-size:9.10244083px;font-family:Tahoma;-inkscape-font-specification:Tahoma;writing-mode:lr-tb;fill:#581518;fill-opacity:1;fill-rule:nonzero;stroke:none;stroke-width:0.34954393" />
  </g>
</svg>
