<svg width="115" height="30" viewBox="0 0 115 30" fill="none" xmlns="http://www.w3.org/2000/svg">
<path d="M37.7112 23.3774C37.5314 23.3774 37.2991 23.3282 37.0182 23.234V22.766C37.3213 22.9421 37.5707 23.024 37.7669 23.024C37.9168 23.024 38.0376 22.9747 38.1293 22.8805C38.2211 22.7822 38.2673 22.6553 38.2673 22.4955C38.2673 22.3645 38.237 22.2537 38.1768 22.1636C38.1166 22.0735 38.0061 21.9712 37.8447 21.8606L37.6592 21.7296C37.4294 21.5658 37.268 21.4143 37.1738 21.2722C37.0796 21.1288 37.0321 20.9607 37.0321 20.7727C37.0321 20.5147 37.1087 20.3063 37.2586 20.1413C37.4093 19.9733 37.601 19.8913 37.8332 19.8913C38.0409 19.8913 38.2604 19.9364 38.4902 20.0183V20.4487C38.2071 20.3136 37.9958 20.2443 37.8553 20.2443C37.723 20.2443 37.6149 20.2892 37.5277 20.3752C37.4421 20.4613 37.3991 20.5717 37.3991 20.7027C37.3991 20.8133 37.4302 20.9117 37.4929 20.9977C37.5568 21.0837 37.6719 21.186 37.839 21.3007L38.0319 21.4361C38.2649 21.6 38.4275 21.7556 38.5204 21.9006C38.6122 22.0439 38.6577 22.2198 38.6577 22.4225C38.6577 22.7092 38.5717 22.9427 38.3984 23.118C38.2256 23.2941 37.997 23.3799 37.7112 23.3799" fill="white"/>
<path d="M41.5681 23.0244C41.8433 23.0244 42.0567 22.9011 42.2066 22.6595C42.3577 22.4137 42.4331 22.0691 42.4331 21.6231C42.4331 21.1914 42.3577 20.8524 42.2066 20.6087C42.0559 20.367 41.8466 20.2442 41.5788 20.2442C41.3117 20.2442 41.1016 20.367 40.9517 20.6087C40.8006 20.8544 40.7265 21.1949 40.7265 21.6291C40.7265 22.0632 40.8006 22.4048 40.9505 22.653C41.0979 22.8987 41.3048 23.0259 41.5681 23.0259V23.0244ZM41.5636 23.3764C41.1884 23.3764 40.8878 23.2168 40.6613 22.897C40.434 22.5775 40.3202 22.1552 40.3202 21.6306C40.3202 21.1022 40.434 20.6807 40.6626 20.3637C40.8911 20.0483 41.1979 19.8893 41.5788 19.8893C41.9605 19.8893 42.266 20.049 42.4945 20.3627C42.7243 20.6781 42.8382 21.0997 42.8382 21.6256C42.8382 22.1633 42.7243 22.5894 42.4945 22.904C42.266 23.2193 41.9547 23.3764 41.5636 23.3764" fill="white"/>
<path d="M44.6597 23.2942V19.9735H45.0414V22.9422H46.2549V23.2942H44.6597V23.2942Z" fill="white"/>
<path d="M47.9119 19.973H48.294V22.0683C48.294 22.4001 48.3439 22.6456 48.4439 22.7967C48.5434 22.9483 48.7039 23.0262 48.9222 23.0262C49.1356 23.0262 49.2867 22.9525 49.376 22.8132C49.4653 22.6699 49.5095 22.4283 49.5095 22.0863V19.9755H49.845V22.0803C49.845 22.5333 49.7696 22.8628 49.6185 23.0692C49.4678 23.274 49.2261 23.3807 48.8964 23.3807C48.561 23.3807 48.3116 23.2742 48.151 23.0612C47.9921 22.8482 47.9119 22.5151 47.9119 22.0683V19.9775V19.973Z" fill="white"/>
<path d="M52.8567 23.2938H53.032L52.9242 23.5393C53.0193 23.5393 53.1016 23.5803 53.1712 23.6458C53.2421 23.7195 53.2769 23.8016 53.2769 23.8958C53.2769 23.9982 53.2408 24.084 53.1704 24.1578C53.0995 24.2274 53.0123 24.2643 52.9103 24.2643C52.8243 24.2643 52.7358 24.2643 52.6453 24.2193V24.0393C52.701 24.0802 52.7649 24.0798 52.837 24.0798C52.8985 24.0798 52.9451 24.0802 52.9763 24.0393C53.0078 23.9983 53.0238 23.9696 53.0238 23.9123C53.0238 23.8386 52.9959 23.7851 52.9382 23.7523C52.8812 23.7113 52.7965 23.6993 52.6839 23.6993L52.8567 23.3058V23.2938ZM52.9578 23.3753C52.5384 23.3753 52.2149 23.2241 51.986 22.9219C51.7587 22.6188 51.6436 22.189 51.6436 21.634C51.6436 21.0803 51.7607 20.6509 51.9929 20.3466C52.2251 20.0395 52.5524 19.8882 52.975 19.8882C53.2167 19.8882 53.5001 19.9374 53.8236 20.0357V20.4781C53.4534 20.3184 53.1704 20.2402 52.9693 20.2402C52.6781 20.2402 52.4504 20.3635 52.2903 20.6051C52.1301 20.8509 52.0499 21.1926 52.0499 21.637C52.0499 22.0609 52.1359 22.394 52.3066 22.6389C52.4783 22.8846 52.7117 23.0079 53.0078 23.0079C53.2629 23.0079 53.5357 22.9094 53.8261 22.7169V23.1184C53.5615 23.2863 53.2711 23.3723 52.9578 23.3723" fill="white"/>
<path d="M56.1633 19.6948C56.1703 19.5187 56.2018 19.3878 56.2575 19.3018C56.3144 19.2158 56.3955 19.1708 56.5 19.1708C56.5896 19.1708 56.6708 19.2118 56.7461 19.2568L56.8554 19.3388C56.9238 19.392 56.975 19.4203 57.0119 19.4203C57.0529 19.4203 57.0852 19.3798 57.1094 19.3593C57.1327 19.3183 57.1479 19.2567 57.1524 19.1748H57.3756C57.3694 19.3509 57.3371 19.4818 57.2814 19.5678C57.2257 19.6579 57.1454 19.6988 57.0389 19.6988C56.9505 19.6988 56.8682 19.6579 56.7928 19.6088L56.6847 19.5268C56.6163 19.4735 56.5639 19.4493 56.5278 19.4493C56.4873 19.4493 56.4537 19.4903 56.4303 19.5108C56.4062 19.5517 56.3923 19.6129 56.3873 19.6948H56.1633ZM56.7588 23.0244C57.0353 23.0244 57.2478 22.9011 57.3973 22.6595C57.5484 22.4137 57.6238 22.0691 57.6238 21.6231C57.6238 21.1914 57.5484 20.8536 57.3965 20.6087C57.2454 20.367 57.0365 20.2442 56.7707 20.2442C56.5012 20.2442 56.2923 20.367 56.1412 20.6087C55.9905 20.8544 55.9159 21.1937 55.9159 21.6291C55.9159 22.0632 55.9905 22.405 56.1404 22.652C56.2899 22.9018 56.4955 23.0244 56.7588 23.0244V23.0244ZM56.7531 23.3764C56.3792 23.3764 56.0798 23.2168 55.8512 22.897C55.6235 22.5775 55.5096 22.1552 55.5096 21.6306C55.5096 21.1022 55.6247 20.6807 55.8533 20.3637C56.0822 20.0483 56.3873 19.8893 56.7707 19.8893C57.1516 19.8893 57.4555 20.049 57.6852 20.3627C57.9154 20.6781 58.0301 21.0997 58.0301 21.6256C58.0301 22.1633 57.9154 22.5894 57.6852 22.904C57.4555 23.2193 57.1454 23.3764 56.7531 23.3764" fill="white"/>
<path d="M59.8503 23.2937V19.973H61.3563V20.3255H60.2325V21.3909H61.1741V21.7393H60.2325V22.9422H61.4341V23.2942H59.8503V23.2937Z" fill="white"/>
<path d="M63.6853 23.3774C63.5055 23.3774 63.2733 23.3282 62.9923 23.234V22.766C63.295 22.9421 63.5448 23.024 63.7397 23.024C63.8909 23.024 64.0113 22.9747 64.103 22.8805C64.1948 22.7822 64.2415 22.6553 64.2415 22.4955C64.2415 22.3645 64.2099 22.2537 64.1509 22.1636C64.0903 22.0735 63.9802 21.9712 63.8176 21.8606L63.6328 21.7296C63.4043 21.5658 63.2417 21.4143 63.1475 21.2722C63.0537 21.1288 63.0062 20.9607 63.0062 20.7727C63.0062 20.5147 63.0816 20.3063 63.2323 20.1413C63.3834 19.9733 63.5751 19.8913 63.8073 19.8913C64.0162 19.8913 64.2345 19.9364 64.4643 20.0183V20.4487C64.1796 20.3136 63.9687 20.2443 63.829 20.2443C63.6968 20.2443 63.5878 20.2892 63.5018 20.3752C63.4158 20.4613 63.3728 20.5717 63.3728 20.7027C63.3728 20.8133 63.4043 20.9117 63.467 20.9977C63.5296 21.0837 63.6459 21.186 63.813 21.3007L64.0056 21.4361C64.239 21.6 64.4004 21.7556 64.4946 21.9006C64.5863 22.0439 64.6314 22.2198 64.6314 22.4225C64.6314 22.7092 64.5453 22.9427 64.3725 23.118C64.1997 23.2941 63.9707 23.3799 63.6853 23.3799" fill="white"/>
<path d="M70.2824 22.0253L69.8241 20.5925L69.3641 22.0253H70.2824ZM70.6866 23.2942L70.3938 22.3743H69.2527L68.9567 23.2942H68.6016L69.6697 19.9735H70.0481L71.0999 23.2942H70.6866Z" fill="white"/>
<path d="M74.799 23.2047C74.4726 23.3194 74.1883 23.3807 73.9455 23.3807C73.5175 23.3807 73.1886 23.2292 72.9601 22.9277C72.7311 22.6287 72.6165 22.1969 72.6165 21.6359C72.6165 21.0858 72.7324 20.6572 72.9646 20.3505C73.1968 20.0433 73.5208 19.892 73.9397 19.892C74.2137 19.892 74.4996 19.9411 74.7953 20.0435V20.479C74.4238 20.3233 74.1396 20.2455 73.9422 20.2455C73.6506 20.2455 73.4245 20.3683 73.2631 20.61C73.103 20.8516 73.0227 21.1973 73.0227 21.6408C73.0227 22.0795 73.1088 22.4198 73.2804 22.6622C73.4536 22.9039 73.6948 23.0267 74.0061 23.0267C74.1338 23.0267 74.2719 22.9862 74.4193 22.9452V21.8628H74.799V23.2077V23.2047Z" fill="white"/>
<path d="M77.1343 21.5371H77.2588C77.7392 21.5371 77.9784 21.3036 77.9784 20.8392C77.9784 20.4951 77.7789 20.3252 77.3747 20.3252H77.1343V21.5371ZM76.7559 23.2949V19.9733H77.5709C77.8297 19.9733 78.0284 20.043 78.1664 20.1822C78.3036 20.3215 78.3732 20.5302 78.3732 20.7952C78.3732 21.2375 78.1922 21.5508 77.8277 21.7376L78.7283 23.2939H78.2581L77.4918 21.8891H77.1343V23.2939H76.7559V23.2949Z" fill="white"/>
<path d="M81.49 23.0244C81.7652 23.0244 81.9778 22.9011 82.1285 22.6595C82.2796 22.4137 82.355 22.0691 82.355 21.6231C82.355 21.1914 82.2796 20.8524 82.1273 20.6087C81.9766 20.367 81.7673 20.2442 81.5015 20.2442C81.2324 20.2442 81.0231 20.367 80.8724 20.6087C80.7213 20.8544 80.6471 21.1949 80.6471 21.6291C80.6471 22.0632 80.7213 22.4048 80.8712 22.653C81.0211 22.8987 81.2267 23.0259 81.49 23.0259V23.0244ZM81.4843 23.3764C81.1104 23.3764 80.8097 23.2168 80.582 22.897C80.3547 22.5775 80.2408 22.1552 80.2408 21.6306C80.2408 21.1022 80.3559 20.6807 80.5845 20.3637C80.8122 20.0483 81.1185 19.8893 81.5015 19.8893C81.8824 19.8893 82.1867 20.049 82.4164 20.3627C82.6462 20.6781 82.7601 21.0997 82.7601 21.6256C82.7601 22.1633 82.6462 22.5894 82.4164 22.904C82.1867 23.2193 81.8766 23.3764 81.4843 23.3764" fill="white"/>
<path d="M84.9601 21.6189H85.1157C85.3418 21.6189 85.5171 21.5533 85.6416 21.4264C85.7657 21.2994 85.8271 21.1152 85.8271 20.8809C85.8271 20.6802 85.7784 20.541 85.6809 20.455C85.5847 20.369 85.4221 20.328 85.1956 20.328H84.9601V21.6214V21.6189ZM84.5817 23.2942V19.9735H85.3152C85.6404 19.9735 85.8738 20.0393 86.0164 20.1745C86.1581 20.3097 86.2302 20.5348 86.2302 20.8419C86.2302 21.1983 86.1327 21.4737 85.9377 21.6724C85.7436 21.873 85.4745 21.9753 85.1305 21.9753H84.9601V23.2942H84.5817Z" fill="white"/>
<path d="M87.9291 23.2937V19.973H89.4346V20.3255H88.3112V21.3909H89.2524V21.7393H88.3112V22.9422H89.5124V23.2942H87.9291V23.2937Z" fill="white"/>
<path d="M92.3908 23.3771C91.9714 23.3771 91.6475 23.2257 91.4202 22.9222C91.1924 22.6191 91.0765 22.1903 91.0765 21.6353C91.0765 21.0816 91.1949 20.6521 91.4259 20.3469C91.6581 20.0398 91.9854 19.8895 92.408 19.8895C92.6505 19.8895 92.9327 19.9388 93.2566 20.033V20.4764C92.8876 20.3167 92.603 20.2389 92.4035 20.2389C92.1107 20.2389 91.8834 20.3618 91.7241 20.6034C91.5639 20.8491 91.4841 21.1919 91.4841 21.6363C91.4841 22.059 91.5688 22.3938 91.7392 22.6387C91.9112 22.8844 92.1447 23.0072 92.4404 23.0072C92.6959 23.0072 92.9699 22.9087 93.2603 22.7162V23.1217C92.9945 23.2896 92.7041 23.3756 92.3908 23.3756" fill="white"/>
<path d="M95.0787 19.973H95.4604V22.0683C95.4604 22.4001 95.5104 22.6456 95.6116 22.7967C95.7103 22.9483 95.8704 23.0262 96.0887 23.0262C96.3021 23.0262 96.4532 22.9525 96.5425 22.8132C96.6318 22.6699 96.6773 22.4283 96.6773 22.0863V19.9755H97.0114V22.0803C97.0114 22.5333 96.9361 22.8628 96.785 23.0692C96.6343 23.274 96.3926 23.3807 96.0629 23.3807C95.7275 23.3807 95.4781 23.2742 95.3187 23.0612C95.1586 22.8482 95.0787 22.5151 95.0787 22.0683V19.9775V19.973Z" fill="white"/>
<path d="M99.6411 19.6948L100.08 18.9749H100.495L99.9102 19.6948H99.6411ZM100.334 22.025L99.8766 20.5922L99.4158 22.025H100.334ZM100.738 23.2949L100.447 22.374H99.3052L99.0083 23.2949H98.6528L99.7209 19.9733H100.101L101.152 23.2949H100.738Z" fill="white"/>
<path d="M103.206 21.5371H103.33C103.811 21.5371 104.05 21.3036 104.05 20.8392C104.05 20.4951 103.851 20.3252 103.447 20.3252H103.206V21.5371ZM102.828 23.2949V19.9733H103.643C103.902 19.9733 104.1 20.043 104.238 20.1822C104.375 20.3215 104.444 20.5302 104.444 20.7952C104.444 21.2375 104.263 21.5508 103.899 21.7376L104.799 23.2939H104.33L103.564 21.8891H103.206V23.2939H102.828V23.2949Z" fill="white"/>
<path d="M106.47 19.9735H106.852V23.2942H106.47V19.9735Z" fill="white"/>
<path d="M110.197 22.0253L109.739 20.5925L109.278 22.0253H110.197ZM110.601 23.2942L110.309 22.3743H109.168L108.87 23.2942H108.516L109.583 19.9735H109.963L111.015 23.2942H110.601Z" fill="white"/>
<path d="M113.217 23.3774C113.037 23.3774 112.805 23.3282 112.524 23.234V22.766C112.827 22.9421 113.077 23.024 113.272 23.024C113.423 23.024 113.544 22.9747 113.635 22.8805C113.727 22.7822 113.773 22.6553 113.773 22.4955C113.773 22.3645 113.742 22.2537 113.683 22.1636C113.622 22.0735 113.512 21.9712 113.351 21.8606L113.165 21.7296C112.936 21.5658 112.774 21.4143 112.68 21.2722C112.586 21.1288 112.538 20.9607 112.538 20.7727C112.538 20.5147 112.614 20.3063 112.765 20.1413C112.915 19.9733 113.106 19.8913 113.339 19.8913C113.547 19.8913 113.767 19.9364 113.996 20.0183V20.4487C113.712 20.3136 113.501 20.2443 113.361 20.2443C113.229 20.2443 113.12 20.2892 113.034 20.3752C112.948 20.4613 112.905 20.5717 112.905 20.7027C112.905 20.8133 112.936 20.9117 112.999 20.9977C113.062 21.0837 113.177 21.186 113.345 21.3007L113.538 21.4361C113.771 21.6 113.934 21.7556 114.027 21.9006C114.118 22.0439 114.163 22.2198 114.163 22.4225C114.163 22.7092 114.078 22.9427 113.905 23.118C113.732 23.2941 113.503 23.3799 113.217 23.3799" fill="white"/>
<path d="M106.414 8.14551C107.136 7.42345 108.002 7.06112 109.014 7.06112C110.031 7.06112 110.898 7.42182 111.615 8.14551C112.337 8.86305 112.698 9.72908 112.698 10.7472C112.698 11.7584 112.337 12.6247 111.615 13.348C110.898 14.0643 110.031 14.4229 109.014 14.4229C108.002 14.4229 107.136 14.0664 106.414 13.348C105.697 12.6247 105.338 11.7584 105.338 10.7472C105.338 9.72908 105.697 8.86305 106.414 8.14551ZM103.038 10.7472C103.038 12.397 103.62 13.8053 104.788 14.9733C105.954 16.1402 107.363 16.7242 109.014 16.7242C110.67 16.7242 112.081 16.1402 113.25 14.9733C114.416 13.8053 115 12.397 115 10.7472C115 9.09058 114.416 7.679 113.25 6.51217C112.081 5.34411 110.67 4.76134 109.014 4.76134C107.363 4.76134 105.954 5.34411 104.788 6.51217C103.62 7.679 103.038 9.09058 103.038 10.7472Z" fill="white"/>
<path d="M39.3489 7.06112H42.6843C43.0951 7.06112 43.4482 7.20869 43.743 7.50357C44.0322 7.79436 44.1764 8.14318 44.1764 8.55397C44.1764 8.9709 44.0322 9.32394 43.743 9.61186C43.4482 9.90674 43.0951 10.0543 42.6843 10.0543H39.3489V7.06112ZM39.3489 12.3551H40.6664L43.9429 16.7242H46.8184L43.476 12.2716C44.3422 12.0873 45.0573 11.6517 45.618 10.9632C46.1906 10.2633 46.476 9.4595 46.476 8.55397C46.476 7.50918 46.107 6.6179 45.3674 5.87823C44.6232 5.13406 43.7279 4.76134 42.6843 4.76134H37.048V16.7242H39.3489V12.3551Z" fill="white"/>
<path d="M82.8894 16.7147V8.78894L88.4201 16.7242H90.7083V4.76134H88.4074V12.5201L82.8768 4.76134H80.5881V16.7147H82.8894Z" fill="white"/>
<path d="M60.9905 11.4302H64.3235C64.7355 11.4302 65.0873 11.5775 65.3822 11.8711C65.6726 12.166 65.8163 12.519 65.8163 12.931C65.8163 13.3418 65.6726 13.6917 65.3822 13.9804C65.0873 14.2753 64.7355 14.4219 64.3235 14.4219H60.9905V11.4302ZM60.9905 7.06262H64.3235C64.6069 7.06262 64.8518 7.1609 65.057 7.36159C65.2581 7.56636 65.358 7.81087 65.358 8.09551C65.358 8.3863 65.2581 8.62971 65.057 8.82794C64.8518 9.02862 64.6069 9.12691 64.3235 9.12691H60.9905V7.06062V7.06262ZM58.6884 16.7242H64.3235C65.3683 16.7242 66.2636 16.3512 67.0077 15.6058C67.747 14.8673 68.1164 13.9746 68.1164 12.931C68.1164 11.8408 67.7228 10.9212 66.9332 10.1713C67.4173 9.56516 67.6589 8.87376 67.6589 8.09601C67.6589 7.1786 67.3325 6.39245 66.6838 5.73675C66.0326 5.08637 65.2462 4.76134 64.3235 4.76134H58.6884V16.7242Z" fill="white"/>
<path d="M48.153 16.7242H57.3558V14.4219H50.4539V11.8976H55.2801V9.59686H50.4539V7.06112H57.3558V4.76134H48.153V16.7242Z" fill="white"/>
<path d="M92.0417 4.76134V16.7242H94.3426V11.8966H99.4024V16.7242H101.703V4.76134H99.4024V9.59586H94.3426V4.76134H92.0417Z" fill="white"/>
<path d="M72.2764 12.731L73.6861 9.30089L75.0942 12.731H72.2764ZM74.3418 4.76134H73.0288L68.1182 16.7242H70.6349L71.2513 15.2208H76.1193L76.7369 16.7242H79.2537L74.3418 4.76134Z" fill="white"/>
<path fill-rule="evenodd" clip-rule="evenodd" d="M4.34894 4.20857L4.9084 4.8885L9.08467 9.99849C9.18665 10.1214 9.30501 10.2275 9.43648 10.3135L9.56058 23.0787H12.1252L11.988 10.5609H17.3565C19.2684 10.5609 20.2226 11.4552 20.2226 13.2417C20.2226 14.123 19.922 14.7994 19.3208 15.2745C18.7888 15.6799 18.1355 15.8819 17.3565 15.8819H16.1827C15.3792 15.8819 14.9414 16.8234 15.4582 17.4378L16.2303 18.3547H16.2417L21.5811 24.7025C19.4822 26.1642 16.9105 26.9886 14.1452 26.8973C7.67046 26.6802 2.43344 21.42 2.24545 14.944C2.17091 12.3343 2.91303 9.8958 4.23427 7.86971L2.73774 6.09338C1.04831 8.43975 0.0383343 11.3076 0.0010644 14.4051C-0.095182 22.4005 6.348 29.0248 14.3438 29.1436C18.4324 29.2009 22.1463 27.5706 24.8294 24.899L24.1864 24.1376L24.2154 24.0966L19.5493 18.6001C19.3277 18.3421 19.4076 17.9362 19.7176 17.7912C20.434 17.4554 21.0205 16.9739 21.48 16.3449C22.1173 15.4774 22.4355 14.4453 22.4355 13.2437C22.4355 11.4838 21.8875 10.1501 20.7903 9.24207C19.834 8.44712 18.5779 8.04719 17.0207 8.04719H11.5007C10.999 8.04719 10.5243 7.82193 10.2105 7.42875L7.7192 4.32206C9.74979 2.96151 12.2031 2.18561 14.8382 2.24377C21.4521 2.38711 26.8067 7.80086 26.8833 14.4161C26.9132 16.9226 26.1891 19.2611 24.9256 21.2209L26.4082 23.0222C28.1173 20.6365 29.1248 17.7145 29.1248 14.5625C29.1248 11.2193 28.0497 7.43757 24.6856 4.10458C21.2953 0.747016 17.189 0.237968 17.189 0.237968C17.189 0.237968 16.5841 0.126919 15.9423 0.0654853C15.3259 0.00814704 14.6743 -8.14724e-06 14.5629 -8.14724e-06C10.5869 -8.14724e-06 6.97872 1.60329 4.34894 4.19457V4.20857Z" fill="white"/>
</svg>
