<?xml version="1.0" encoding="UTF-8" standalone="no"?>
<!-- Created with Inkscape (http://www.inkscape.org/) -->

<svg
   xmlns:dc="http://purl.org/dc/elements/1.1/"
   xmlns:cc="http://creativecommons.org/ns#"
   xmlns:rdf="http://www.w3.org/1999/02/22-rdf-syntax-ns#"
   xmlns:svg="http://www.w3.org/2000/svg"
   xmlns="http://www.w3.org/2000/svg"
   xmlns:sodipodi="http://sodipodi.sourceforge.net/DTD/sodipodi-0.dtd"
   xmlns:inkscape="http://www.inkscape.org/namespaces/inkscape"
   width="49.077mm"
   height="28.6mm"
   viewBox="0 0 49.077 28.6"
   version="1.1"
   id="svg3577"
   inkscape:version="0.92.5 (2060ec1f9f, 2020-04-08)"
   sodipodi:docname="logo-coat-of-arms.svg">
  <defs
     id="defs3571" />
  <sodipodi:namedview
     id="base"
     pagecolor="#ffffff"
     bordercolor="#666666"
     borderopacity="1.0"
     inkscape:pageopacity="0.0"
     inkscape:pageshadow="2"
     inkscape:zoom="2.8"
     inkscape:cx="66.473368"
     inkscape:cy="34.615091"
     inkscape:document-units="mm"
     inkscape:current-layer="layer1"
     showgrid="false"
     inkscape:window-width="1366"
     inkscape:window-height="704"
     inkscape:window-x="1366"
     inkscape:window-y="27"
     inkscape:window-maximized="1" />
  <metadata
     id="metadata3574">
    <rdf:RDF>
      <cc:Work
         rdf:about="">
        <dc:format>image/svg+xml</dc:format>
        <dc:type
           rdf:resource="http://purl.org/dc/dcmitype/StillImage" />
        <dc:title></dc:title>
      </cc:Work>
    </rdf:RDF>
  </metadata>
  <g
     inkscape:label="Layer 1"
     inkscape:groupmode="layer"
     id="layer1"
     transform="translate(0,-268.4)">
    <g
       transform="matrix(0.35277777,0,0,-0.35277777,-16.457965,662.2812)"
       id="g3558">
      <path
         inkscape:connector-curvature="0"
         id="text1404"
         transform="matrix(0.75000002,0,0,-0.75000002,0,1920)"
         d="m 84.861328,1109.3398 c -4.6402,0 -8.283897,1.3316 -10.933594,3.9942 -2.63677,2.6626 -3.955078,6.3413 -3.955078,11.0332 0,4.7048 1.324913,8.3749 3.97461,11.0117 2.649696,2.6368 6.359453,3.9551 11.128906,3.9551 h 0.580078 l 4.730469,5.2734 h 7.117187 l -5.835937,-6.5136 c 2.61092,-1.1892 4.607222,-2.9601 5.990234,-5.3126 1.395938,-2.3524 2.09375,-5.1568 2.09375,-8.414 0,-4.7436 -1.311701,-8.4336 -3.935547,-11.0703 -2.61092,-2.6368 -6.263177,-3.9571 -10.955078,-3.9571 z m 0,5.4102 c 2.287787,0 4.058741,0.8412 5.3125,2.5215 1.253759,1.6803 1.88086,4.0453 1.88086,7.0957 -10e-7,3.0374 -0.627101,5.3959 -1.88086,7.0762 -1.253759,1.6803 -3.024713,2.5195 -5.3125,2.5195 -2.326562,0 -4.104123,-0.8194 -5.332031,-2.4609 -1.227908,-1.6545 -1.841797,-4.0327 -1.841797,-7.1348 0,-3.0504 0.627101,-5.4154 1.880859,-7.0957 1.253759,-1.6803 3.018108,-2.5215 5.292969,-2.5215 z m 52.865232,1.8223 c -3.74835,0 -6.69423,1.0156 -8.83984,3.0449 -2.13268,2.0293 -3.19922,4.8139 -3.19922,8.3555 0,3.6061 1.0844,6.4106 3.25586,8.414 2.18438,1.9905 5.24257,2.9863 9.17187,2.9863 1.64152,0 3.28231,-0.1612 4.92383,-0.4843 1.64152,-0.3102 3.28231,-0.7761 4.92383,-1.3965 v -5.3516 c -1.61567,0.8789 -3.19235,1.5391 -4.73047,1.9785 -1.52519,0.4266 -3.01795,0.6387 -4.47851,0.6387 -1.80955,0 -3.21839,-0.4064 -4.22657,-1.2207 -1.00817,-0.8143 -1.59564,-2.0355 -1.76367,-3.6641 h 16.22852 v -1.9785 c 0,-3.4381 -1.02886,-6.1851 -3.08399,-8.2402 -2.0422,-2.0551 -4.76935,-3.082 -8.18164,-3.082 z m 26.70703,0 c -1.33131,0 -2.55248,0.3112 -3.66406,0.9316 -1.09865,0.6204 -2.07466,1.5436 -2.92773,2.7715 v -3.1797 h -6.97852 v 21.7148 h 6.97852 v -10.6835 c 0,-2.0293 0.36211,-3.5862 1.08593,-4.6719 0.72382,-1.0987 1.75072,-1.6485 3.08204,-1.6485 1.05987,0 1.79732,0.3489 2.21093,1.0469 0.41361,0.6851 0.6211,2.2307 0.6211,4.6348 v 11.3222 h 6.97851 v -10.664 c 0.0258,-2.0551 0.39458,-3.6252 1.10547,-4.711 0.72382,-1.0857 1.74607,-1.6289 3.06445,-1.6289 1.00818,0 1.73707,0.3489 2.18946,1.0469 0.45238,0.6851 0.67969,1.7978 0.67969,3.336 0,0.336 -0.007,0.5944 -0.0195,0.7753 0,0.181 -0.007,0.3555 -0.0195,0.5235 v 11.3222 h 6.97852 v -13.2226 c 0,-2.9341 -0.65157,-5.1709 -1.95703,-6.709 -1.30546,-1.5381 -3.20658,-2.3066 -5.70118,-2.3066 -1.44763,0 -2.7772,0.3555 -3.99218,1.0664 -1.20206,0.6979 -2.24413,1.7202 -3.12305,3.0644 -0.59457,-1.3054 -1.46683,-2.3211 -2.61719,-3.0449 -1.15035,-0.7238 -2.47527,-1.0859 -3.97461,-1.0859 z m -62.76367,0.5234 v 13.2617 c 0,2.9341 0.65353,5.1709 1.95899,6.709 1.31838,1.5381 3.23076,2.3066 5.73828,2.3066 1.40886,0 2.69609,-0.298 3.85937,-0.8925 1.17621,-0.6075 2.28703,-1.5439 3.33399,-2.8106 v 3.1406 h 6.9414 v -21.7148 h -6.9414 v 10.7227 c 0,1.9775 -0.41302,3.5212 -1.24024,4.6328 -0.82722,1.1116 -1.96447,1.6679 -3.41211,1.6679 -0.59456,0 -1.12453,-0.1235 -1.58984,-0.3691 -0.45239,-0.2456 -0.82111,-0.5945 -1.10547,-1.0469 -0.21973,-0.349 -0.37437,-0.9053 -0.46484,-1.6679 -0.0905,-0.7756 -0.13672,-2.0344 -0.13672,-3.7793 0,-0.5946 0.007,-1.7781 0.0195,-3.5489 0.0129,-1.7837 0.0195,-3.2632 0.0195,-4.4394 v -2.1719 z m 36.01758,4.0918 c 1.24083,0 2.24326,0.4064 3.00586,1.2207 0.77552,0.8014 1.16406,1.8613 1.16406,3.1797 h -9.01562 c 0.2068,-1.4218 0.73016,-2.5082 1.57031,-3.2578 0.84015,-0.7626 1.93115,-1.1426 3.27539,-1.1426 z m -61.441406,24.9297 c -4.756281,0 -8.285247,0.8104 -10.587891,2.4336 -2.302644,1.6232 -3.455078,4.115 -3.455078,7.4746 0,3.1142 0.906833,5.436 2.71875,6.9648 1.811917,1.5288 4.973458,2.5764 9.484375,3.1426 l 1.783203,0.2266 c 2.05728,0.2453 3.426,0.5939 4.105469,1.0468 0.698343,0.4342 1.046875,1.1039 1.046875,2.0098 0,1.0758 -0.499671,1.8882 -1.5,2.4356 -1.000329,0.5473 -2.490873,0.8203 -4.472656,0.8203 -2.1894,0 -4.351599,-0.2437 -6.484375,-0.7344 -2.113903,-0.4907 -4.179687,-1.2275 -6.199219,-2.209 v 7.7012 c 2.359266,0.6606 4.651759,1.1498 6.878906,1.4707 2.246022,0.3397 4.41669,0.5098 6.511719,0.5098 4.945022,0 8.662911,-0.8482 11.154297,-2.5469 2.491385,-1.6987 3.738281,-4.2368 3.738281,-7.6153 0,-3.2274 -0.896411,-5.5974 -2.689453,-7.1074 -1.793043,-1.5099 -5.286176,-2.5952 -10.476563,-3.2558 l -1.783203,-0.2539 c -1.830791,-0.2077 -3.105048,-0.5288 -3.822265,-0.9629 -0.698343,-0.4341 -1.046875,-1.0576 -1.046875,-1.8692 0,-1.0003 0.461886,-1.7351 1.386718,-2.207 0.943707,-0.4907 2.377573,-0.7363 4.302735,-0.7363 1.793042,0 3.701171,0.2267 5.720703,0.6797 2.019532,0.4529 4.114631,1.1311 6.285156,2.0371 v -7.6993 c -2.415889,-0.6039 -4.653657,-1.0489 -6.710937,-1.332 -2.057281,-0.2831 -4.020133,-0.4238 -5.888672,-0.4238 z m 32.777346,0 c -5.4735,0 -9.758161,1.4716 -12.853518,4.416 -3.076484,2.9444 -4.615234,7.0212 -4.615234,12.2305 0,5.2092 1.53875,9.2861 4.615234,12.2304 3.095357,2.9444 7.380018,4.4161 12.853518,4.4161 5.45462,0 9.70997,-1.4717 12.76758,-4.4161 3.07648,-2.9443 4.61523,-7.0212 4.61523,-12.2304 0,-5.2093 -1.53875,-9.2861 -4.61523,-12.2305 -3.05761,-2.9444 -7.31296,-4.416 -12.76758,-4.416 z m 40.44531,0 c -1.94404,0 -3.72839,0.4534 -5.35156,1.3594 -1.6043,0.9059 -3.0297,2.2538 -4.27539,4.0468 v -4.6425 h -10.19141 v 31.7089 h 10.19141 v -15.5996 c 0,-2.9632 0.52898,-5.2368 1.58593,-6.8222 1.05696,-1.6043 2.55792,-2.4063 4.50196,-2.4063 1.54768,0 2.62259,0.5082 3.22656,1.5274 0.60397,1.0003 0.90625,3.257 0.90625,6.7675 v 16.5332 h 10.19336 v -15.5703 c 0.0377,-3.001 0.5752,-5.2954 1.61328,-6.8808 1.05695,-1.5855 2.5475,-2.377 4.47266,-2.377 1.47218,0 2.53862,0.5082 3.19922,1.5274 0.66059,1.0003 0.99023,2.625 0.99023,4.8711 0,0.4907 -0.008,0.8666 -0.0273,1.1308 0,0.2643 -0.0104,0.5203 -0.0293,0.7656 v 16.5332 h 10.19336 v -19.3086 c 0,-4.2844 -0.95309,-7.5489 -2.85938,-9.7949 -1.90628,-2.246 -4.68151,-3.3691 -8.32421,-3.3691 -2.11391,0 -4.05787,0.5186 -5.83204,1.5566 -1.75529,1.0192 -3.27515,2.5098 -4.55859,4.4727 -0.86821,-1.9063 -2.14247,-3.3864 -3.82227,-4.4434 -1.67979,-1.0569 -3.61333,-1.5859 -5.80273,-1.5859 z m 50.64258,0 c -5.4735,0 -9.75816,1.4716 -12.85352,4.416 -3.07648,2.9444 -4.61523,7.0212 -4.61523,12.2305 0,5.2092 1.53875,9.2861 4.61523,12.2304 3.09536,2.9444 7.38002,4.4161 12.85352,4.4161 5.45462,0 9.70997,-1.4717 12.76758,-4.4161 3.07648,-2.9443 4.61523,-7.0212 4.61523,-12.2304 0,-5.2093 -1.53875,-9.2861 -4.61523,-12.2305 -3.05761,-2.9444 -7.31296,-4.416 -12.76758,-4.416 z m 32.85937,0 c -4.75628,0 -8.2872,0.8104 -10.58984,2.4336 -2.30264,1.6232 -3.45313,4.115 -3.45313,7.4746 0,3.1142 0.90488,5.436 2.7168,6.9648 1.81192,1.5288 4.97346,2.5764 9.48438,3.1426 l 1.78515,0.2266 c 2.05728,0.2453 3.42405,0.5939 4.10352,1.0468 0.69834,0.4342 1.04883,1.1039 1.04883,2.0098 0,1.0758 -0.50163,1.8882 -1.50196,2.4356 -1.00033,0.5473 -2.49087,0.8203 -4.47265,0.8203 -2.1894,0 -4.34965,-0.2437 -6.48242,-0.7344 -2.11391,-0.4907 -4.18164,-1.2275 -6.20118,-2.209 v 7.7012 c 2.35927,0.6606 4.65371,1.1498 6.88086,1.4707 2.24602,0.3397 4.41669,0.5098 6.51172,0.5098 4.94502,0 8.66291,-0.8482 11.1543,-2.5469 2.49138,-1.6987 3.73633,-4.2368 3.73633,-7.6153 0,-3.2274 -0.89641,-5.5974 -2.68946,-7.1074 -1.79304,-1.5099 -5.28422,-2.5952 -10.47461,-3.2558 l -1.7832,-0.2539 c -1.83079,-0.2077 -3.10505,-0.5288 -3.82226,-0.9629 -0.69835,-0.4341 -1.04883,-1.0576 -1.04883,-1.8692 0,-1.0003 0.46384,-1.7351 1.38867,-2.207 0.94371,-0.4907 2.37757,-0.7363 4.30273,-0.7363 1.79305,0 3.69922,0.2267 5.71875,0.6797 2.01954,0.4529 4.11463,1.1311 6.28516,2.0371 v -7.6993 c -2.41589,-0.6039 -4.6517,-1.0489 -6.70898,-1.332 -2.05729,-0.2831 -4.02014,-0.4238 -5.88868,-0.4238 z m -123.94726,7.248 c 2.20827,0 3.89621,0.8105 5.0664,2.4336 1.1702,1.6043 1.75586,3.9261 1.75586,6.9649 0,3.0387 -0.58566,5.369 -1.75586,6.9922 -1.17019,1.6043 -2.85813,2.4082 -5.0664,2.4082 -2.24602,0 -3.96523,-0.8039 -5.1543,-2.4082 -1.1702,-1.6232 -1.75391,-3.9535 -1.75391,-6.9922 0,-3.0388 0.58371,-5.3606 1.75391,-6.9649 1.18907,-1.6231 2.90828,-2.4336 5.1543,-2.4336 z m 91.08789,0 c 2.20827,0 3.89816,0.8105 5.06836,2.4336 1.17019,1.6043 1.7539,3.9261 1.7539,6.9649 0,3.0387 -0.58371,5.369 -1.7539,6.9922 -1.1702,1.6043 -2.86009,2.4082 -5.06836,2.4082 -2.24602,0 -3.96328,-0.8039 -5.15235,-2.4082 -1.17019,-1.6232 -1.75586,-3.9535 -1.75586,-6.9922 0,-3.0388 0.58567,-5.3606 1.75586,-6.9649 1.18907,-1.6231 2.90633,-2.4336 5.15235,-2.4336 z"
         style="font-variant:normal;font-weight:bold;font-size:43.48600006px;font-family:Tahoma;-inkscape-font-specification:Tahoma-Bold;writing-mode:lr-tb;fill:#ffffff;fill-opacity:1;fill-rule:nonzero;stroke:none;stroke-width:1.33333325" />
      <path
         inkscape:connector-curvature="0"
         id="path1410"
         transform="matrix(0.75000002,0,0,-0.75000002,0,1920)"
         d="m 161.51562,1071.3145 c -1.06779,0 -2.13457,0.013 -3.19531,0.098 -1.85693,0.1477 -2.39768,1.0081 -2.25781,3.0352 0.4952,7.1784 0.99277,14.3555 1.52344,21.5312 0.0865,1.172 0.27978,2.3475 0.56445,3.4863 0.0963,0.3848 0.59168,0.8749 0.96875,0.9375 0.60787,0.1012 0.71588,-0.509 0.84961,-1.0273 2.00693,-7.7805 4.04026,-15.5547 6.04492,-23.3359 0.22334,-0.8667 0.34797,-1.7635 0.45117,-2.6543 0.0824,-0.7091 -0.14592,-1.3336 -0.88672,-1.8086 -0.21386,-0.059 -0.53617,-0.2266 -0.85937,-0.2266 -1.06673,-0.01 -2.13533,-0.031 -3.20313,-0.035 z m 0.94922,1.8144 c 0.69956,0.023 1.45224,0.073 2.25,0.1504 -1.79226,6.8883 -3.54802,13.6408 -5.30468,20.3926 -0.1168,-0.01 -0.23281,-0.02 -0.34961,-0.02 -0.40974,-6.6864 -0.8187,-13.3721 -1.22657,-20.0293 0.9145,-0.3898 2.53219,-0.5626 4.63086,-0.4941 z m 25.75196,1.9453 c -1.11494,-0.025 -2.00154,0.4177 -2.51368,1.3906 -0.49479,0.9396 -0.94322,1.9218 -1.26562,2.9317 -1.6064,5.0309 -3.20221,10.066 -4.72461,15.123 -0.8988,2.9843 -2.0452,5.9114 -2.35547,9.0469 -0.0371,0.3753 0.1206,0.9905 0.375,1.1172 0.27627,0.138 0.82825,-0.081 1.15625,-0.2988 0.30774,-0.2046 0.49174,-0.6051 0.71094,-0.9317 2.5108,-3.7316 5.01726,-7.4642 7.52539,-11.1972 v 0 c -0.0177,-0.012 -0.0358,-0.02 -0.0527,-0.033 2.47546,-3.6855 4.96041,-7.3642 7.41601,-11.0625 0.40027,-0.602 0.75407,-1.2639 0.98047,-1.9473 0.35107,-1.0609 0.036,-1.9837 -0.96094,-2.4179 -2.0044,-0.8727 -4.05008,-1.6681 -6.29101,-1.7188 z m 0.15234,2.0274 c 0.27947,0.01 0.62044,0.064 1.05274,0.1504 1.35573,0.2725 2.6769,0.7254 4.30664,1.1796 -4.05507,6.7198 -8.40048,12.8934 -12.58594,19.1719 -0.1212,-0.081 -0.2435,-0.1622 -0.36524,-0.2422 1.31494,-4.177 2.61816,-8.357 3.94922,-12.5293 0.64934,-2.0353 1.29252,-4.0763 2.04492,-6.0742 0.4808,-1.2764 0.75924,-1.6804 1.59766,-1.6562 z m -47.94531,5.5371 c -0.11615,-8e-4 -0.24065,0.01 -0.375,0.023 -1.05374,0.1244 -2.10571,0.3479 -3.12891,0.6328 -3.09346,0.8626 -3.48515,1.7835 -2.28515,4.7617 1.44493,3.5872 2.80214,7.2114 4.23828,10.8028 0.19506,0.4876 0.63143,0.8779 0.74023,1.0234 1.02013,0.7964 1.47754,0.6869 1.79688,-0.1699 0.13533,-0.3636 0.17576,-0.7617 0.25976,-1.1445 0.966,-4.3931 0.58049,-8.8194 0.32422,-13.2422 -0.0257,-0.4471 -0.0523,-0.9028 -0.1543,-1.336 -0.21793,-0.9279 -0.603,-1.3464 -1.41601,-1.3515 z m -0.20313,1.7031 c 0.12894,4.2281 0.78722,8.3687 -0.18945,12.6309 -1.46907,-3.7179 -2.93711,-7.4353 -4.42578,-11.2032 1.42067,-0.9546 2.86417,-1.2538 4.61523,-1.4277 z m 77.41016,7.5898 c -1.31045,-0.01 -2.3706,0.6656 -3.69727,2.1153 -0.79586,0.8701 -1.6109,1.725 -2.3789,2.6191 -4.28627,4.9895 -8.56145,9.9885 -12.83985,14.9844 v 0 c 0.0237,0.021 0.0468,0.041 0.0703,0.062 -0.15654,0.2336 -0.41118,0.4499 -0.45118,0.7012 -0.11,0.686 -0.67561,1.4642 -0.0273,2.0606 0.66813,0.6146 1.24464,-0.07 1.77344,-0.4317 4.312,-2.9562 8.63517,-5.8969 12.91211,-8.9043 2.80173,-1.9698 5.54729,-4.0225 8.28515,-6.082 0.6664,-0.5012 1.27613,-1.117 1.78907,-1.7754 0.932,-1.1973 0.79631,-2.3014 -0.39649,-3.2266 -0.70453,-0.5465 -1.48429,-1.0324 -2.29883,-1.3925 -1.07745,-0.4764 -1.95396,-0.7276 -2.74023,-0.7325 z m 0.0742,1.9239 c 0.39826,-0.01 0.81409,0.088 1.24609,0.2871 0.94,0.4328 2.03981,0.6306 2.79688,1.8086 -5.66894,5.3416 -12.51133,8.9616 -18.54493,13.6758 -0.0795,-0.084 -0.15766,-0.17 -0.23632,-0.254 0.45733,-0.5552 0.90704,-1.1155 1.37304,-1.664 0.5088,-0.6001 1.0299,-1.1898 1.54883,-1.7813 3.002,-3.4224 6.00332,-6.8474 9.01172,-10.2636 0.2964,-0.3364 0.64671,-0.6257 0.96484,-0.9434 0.56175,-0.5603 1.17609,-0.8536 1.83985,-0.8652 z m 8.68945,17.5781 c -0.48227,0.01 -1.04727,0.2015 -1.79492,0.5469 -3.71347,1.7154 -7.42797,3.4318 -11.12891,5.1738 -0.54493,0.2567 -1.02157,0.6576 -1.5957,1.0352 -0.0593,0.3008 -0.2508,0.6669 -0.14453,0.8925 0.11373,0.242 0.49116,0.3959 0.78515,0.5039 0.1932,0.071 0.44229,0 0.66602,-0.017 4.4912,-0.1778 8.94145,-0.7051 13.33398,-1.6602 0.8156,-0.1772 1.63112,-0.4353 2.38672,-0.7852 0.93654,-0.4346 1.21811,-1.1107 0.83985,-2.0742 -0.2816,-0.7173 -0.72827,-1.3842 -1.17774,-2.0195 -0.79391,-1.1216 -1.36613,-1.6114 -2.16992,-1.5957 z m -0.0234,1.6719 c 0.5844,0.7676 1.11005,1.4579 1.78125,2.3398 -3.50653,1.3685 -7.02596,1.529 -10.45703,2.1152 -0.0443,-0.1436 -0.087,-0.2863 -0.13086,-0.4296 2.89054,-1.321 5.78038,-2.6425 8.80664,-4.0254 z"
         style="fill:#f6a31c;fill-opacity:1;fill-rule:nonzero;stroke:none;stroke-width:1.33333325" />
    </g>
  </g>
</svg>
