<?xml version="1.0" encoding="UTF-8" standalone="no"?>
<!-- Created with Inkscape (http://www.inkscape.org/) -->

<svg
   xmlns:dc="http://purl.org/dc/elements/1.1/"
   xmlns:cc="http://creativecommons.org/ns#"
   xmlns:rdf="http://www.w3.org/1999/02/22-rdf-syntax-ns#"
   xmlns:svg="http://www.w3.org/2000/svg"
   xmlns="http://www.w3.org/2000/svg"
   xmlns:sodipodi="http://sodipodi.sourceforge.net/DTD/sodipodi-0.dtd"
   xmlns:inkscape="http://www.inkscape.org/namespaces/inkscape"
   width="51.666mm"
   height="27.917mm"
   viewBox="0 0 51.666 27.917"
   version="1.1"
   id="svg7289"
   inkscape:version="0.92.5 (2060ec1f9f, 2020-04-08)"
   sodipodi:docname="logo-animals.svg">
  <defs
     id="defs7283" />
  <sodipodi:namedview
     id="base"
     pagecolor="#ffffff"
     bordercolor="#666666"
     borderopacity="1.0"
     inkscape:pageopacity="0.0"
     inkscape:pageshadow="2"
     inkscape:zoom="3.959798"
     inkscape:cx="151.56059"
     inkscape:cy="59.414659"
     inkscape:document-units="mm"
     inkscape:current-layer="layer1"
     showgrid="false"
     inkscape:window-width="1366"
     inkscape:window-height="704"
     inkscape:window-x="1366"
     inkscape:window-y="27"
     inkscape:window-maximized="1" />
  <metadata
     id="metadata7286">
    <rdf:RDF>
      <cc:Work
         rdf:about="">
        <dc:format>image/svg+xml</dc:format>
        <dc:type
           rdf:resource="http://purl.org/dc/dcmitype/StillImage" />
        <dc:title />
      </cc:Work>
    </rdf:RDF>
  </metadata>
  <g
     inkscape:label="Layer 1"
     inkscape:groupmode="layer"
     id="layer1"
     transform="translate(0,-269.083)">
    <path
       style="font-variant:normal;font-weight:bold;font-size:24.67468262px;font-family:Tahoma;-inkscape-font-specification:Tahoma-Bold;writing-mode:lr-tb;fill:#581518;fill-opacity:1;fill-rule:nonzero;stroke:none;stroke-width:0.35211036"
       inkscape:connector-curvature="0"
       id="path23"
       d="m 13.955256,279.01587 q -0.475137,0.0293 -0.716947,0.20537 -0.237569,0.17584 -0.237569,0.48977 0,0.28848 0.190904,0.44217 0.195145,0.14919 0.53877,0.12802 0.428472,-0.0264 0.72119,-0.34987 0.292718,-0.32772 0.292718,-0.79013 v -0.17393 z m 2.320533,-0.71565 v 2.71082 l -1.531467,0.0943 v -0.70422 q -0.305445,0.45153 -0.687251,0.67444 -0.381806,0.21866 -0.929062,0.25237 -0.738158,0.0455 -1.200568,-0.35451 -0.458167,-0.4045 -0.458167,-1.09175 0,-0.83573 0.572709,-1.2613 0.576951,-0.42583 1.807216,-0.50161 l 0.895123,-0.0551 v -0.11879 q 0,-0.36059 -0.284234,-0.50853 -0.284233,-0.15218 -0.886638,-0.11508 -0.487864,0.0301 -0.90785,0.1535 -0.419987,0.12344 -0.780582,0.3408 v -1.15814 q 0.487863,-0.14884 0.979969,-0.23855 0.492106,-0.0939 0.984212,-0.12426 1.285414,-0.0792 1.853881,0.39488 0.572709,0.46955 0.572709,1.61073 z" />
    <path
       style="font-variant:normal;font-weight:bold;font-size:24.67468262px;font-family:Tahoma;-inkscape-font-specification:Tahoma-Bold;writing-mode:lr-tb;fill:#581518;fill-opacity:1;fill-rule:nonzero;stroke:none;stroke-width:0.35211036"
       inkscape:connector-curvature="0"
       id="path25"
       d="m 21.806683,277.7771 v 2.89324 l -1.527224,0.0941 v -0.4709 -1.74358 q 0,-0.61513 -0.0297,-0.84663 -0.02545,-0.23176 -0.09333,-0.33787 -0.08909,-0.143 -0.241811,-0.21419 -0.152722,-0.0754 -0.347868,-0.0634 -0.475136,0.0293 -0.746643,0.41507 -0.271507,0.38156 -0.271507,1.03063 v 2.33751 l -1.518739,0.0935 v -4.75136 l 1.518739,-0.0936 v 0.69574 q 0.343626,-0.43692 0.729675,-0.65584 0.386048,-0.22317 0.8527,-0.25191 0.823004,-0.0507 1.247233,0.428 0.428472,0.47844 0.428472,1.44144 z" />
    <path
       style="font-variant:normal;font-weight:bold;font-size:24.67468262px;font-family:Tahoma;-inkscape-font-specification:Tahoma-Bold;writing-mode:lr-tb;fill:#581518;fill-opacity:1;fill-rule:nonzero;stroke:none;stroke-width:0.35211036"
       inkscape:connector-curvature="0"
       id="path27"
       d="m 22.59032,275.8707 1.51874,-0.0935 v 4.75136 l -1.51874,0.0936 z m 0,-1.84964 1.51874,-0.0935 v 1.23875 l -1.51874,0.0935 z" />
    <path
       style="font-variant:normal;font-weight:bold;font-size:24.67468262px;font-family:Tahoma;-inkscape-font-specification:Tahoma-Bold;writing-mode:lr-tb;fill:#581518;fill-opacity:1;fill-rule:nonzero;stroke:none;stroke-width:0.35211036"
       inkscape:connector-curvature="0"
       id="path29"
       d="m 29.617657,276.22688 q 0.288476,-0.45896 0.683009,-0.71235 0.398775,-0.25789 0.873911,-0.28716 0.818763,-0.0504 1.247234,0.428 0.428471,0.47844 0.428471,1.44144 v 2.89324 l -1.527225,0.0941 v -2.4775 q 0.0042,-0.0554 0.0042,-0.1148 0.0042,-0.0596 0.0042,-0.16995 0,-0.50484 -0.14848,-0.72053 -0.14848,-0.21994 -0.479379,-0.19956 -0.432713,0.0267 -0.670282,0.39765 -0.233326,0.37072 -0.24181,1.04577 v 2.33326 l -1.527225,0.0941 v -2.4775 q 0,-0.78907 -0.135753,-1.00555 -0.135754,-0.22072 -0.483621,-0.19929 -0.436956,0.0269 -0.674524,0.40215 -0.237569,0.37098 -0.237569,1.03702 v 2.3375 l -1.527224,0.0941 v -4.75136 l 1.527224,-0.0941 v 0.69573 q 0.279992,-0.42026 0.640586,-0.6461 0.364837,-0.22611 0.801793,-0.25302 0.492106,-0.0303 0.86967,0.18399 0.377564,0.21431 0.572709,0.63076 z" />
    <path
       style="font-variant:normal;font-weight:bold;font-size:24.67468262px;font-family:Tahoma;-inkscape-font-specification:Tahoma-Bold;writing-mode:lr-tb;fill:#581518;fill-opacity:1;fill-rule:nonzero;stroke:none;stroke-width:0.35211036"
       inkscape:connector-curvature="0"
       id="path31"
       d="m 35.632342,277.68056 q -0.475136,0.0293 -0.716947,0.20537 -0.237568,0.17585 -0.237568,0.48978 0,0.28847 0.190903,0.44216 0.195145,0.14919 0.538771,0.12802 0.428471,-0.0264 0.721189,-0.34987 0.292718,-0.32772 0.292718,-0.79013 v -0.17393 z m 2.320533,-0.71565 v 2.71082 l -1.531467,0.0943 v -0.70422 q -0.305445,0.45153 -0.687251,0.67444 -0.381806,0.21866 -0.929062,0.25237 -0.738158,0.0455 -1.200568,-0.35451 -0.458167,-0.40449 -0.458167,-1.09174 0,-0.83574 0.572709,-1.26131 0.576952,-0.42583 1.807216,-0.50161 l 0.895123,-0.0551 v -0.11878 q 0,-0.3606 -0.284233,-0.50854 -0.284234,-0.15218 -0.886639,-0.11507 -0.487864,0.0301 -0.90785,0.15349 -0.419987,0.12345 -0.780582,0.3408 v -1.15814 q 0.487864,-0.14884 0.97997,-0.23854 0.492105,-0.094 0.984211,-0.12427 1.285414,-0.0792 1.853881,0.39488 0.572709,0.46955 0.572709,1.61073 z" />
    <path
       style="font-variant:normal;font-weight:bold;font-size:24.67468262px;font-family:Tahoma;-inkscape-font-specification:Tahoma-Bold;writing-mode:lr-tb;fill:#581518;fill-opacity:1;fill-rule:nonzero;stroke:none;stroke-width:0.35211036"
       inkscape:connector-curvature="0"
       id="path33"
       d="m 38.706951,273.02828 1.51874,-0.0936 v 6.60101 l -1.51874,0.0935 z" />
    <path
       inkscape:connector-curvature="0"
       id="path1426"
       style="fill:#f6a31c;fill-opacity:1;fill-rule:nonzero;stroke:none;stroke-width:0.35277778"
       d="m 40.056255,280.91212 c 0.199496,0.0373 0.475791,0.0875 0.751381,0.141 0.4064,0.0786 0.599299,0.34717 0.553227,0.73748 -0.04823,0.40912 -0.34851,0.56452 -0.736918,0.5575 -0.155504,-0.003 -0.312984,-0.0155 -0.465384,-0.045 -2.404004,-0.46461 -4.8393,-0.3961 -7.267011,-0.4022 -1.808303,-0.005 -3.6183,0.0425 -5.425087,0.12449 -3.870501,0.17558 -7.688403,0.68729 -11.349919,2.02798 -0.721395,0.26423 -1.402292,0.64982 -2.079378,1.02052 -0.320322,0.17508 -0.59182,0.2099 -0.847725,-0.0448 -0.283104,-0.28208 -0.307093,-0.63281 -0.04939,-0.92688 0.178082,-0.2031 0.433211,-0.35363 0.67811,-0.48112 2.460801,-1.28129 5.091888,-2.01489 7.823587,-2.43618 4.389508,-0.67702 8.806709,-0.89542 13.241408,-0.83792 1.7151,0.0224 3.4302,0.0669 5.173098,0.56512" />
    <path
       style="font-variant:normal;font-weight:normal;font-size:13.82999992px;font-family:Tahoma;-inkscape-font-specification:Tahoma;writing-mode:lr-tb;fill:#581518;fill-opacity:1;fill-rule:nonzero;stroke:none;stroke-width:0.35277778"
       inkscape:connector-curvature="0"
       id="path36"
       d="m 17.060979,269.31627 h 0.647981 l 1.577072,2.97547 v -2.97547 h 0.466927 v 3.55675 h -0.647981 l -1.577071,-2.97547 v 2.97547 h -0.466928 z" />
    <path
       style="font-variant:normal;font-weight:normal;font-size:13.82999992px;font-family:Tahoma;-inkscape-font-specification:Tahoma;writing-mode:lr-tb;fill:#581518;fill-opacity:1;fill-rule:nonzero;stroke:none;stroke-width:0.35277778"
       inkscape:connector-curvature="0"
       id="path38"
       d="m 20.255773,271.82005 v -1.61519 h 0.43834 v 1.59851 q 0,0.37879 0.147702,0.56937 0.147702,0.1882 0.443105,0.1882 0.35496,0 0.559836,-0.22632 0.207259,-0.22631 0.207259,-0.61701 v -1.51275 h 0.43834 v 2.66816 h -0.43834 v -0.40975 q -0.159613,0.24299 -0.371636,0.3621 -0.209641,0.11674 -0.488368,0.11674 -0.459781,0 -0.698009,-0.28588 -0.238229,-0.28587 -0.238229,-0.83618 z m 1.102998,-1.67951 z" />
    <path
       style="font-variant:normal;font-weight:normal;font-size:13.82999992px;font-family:Tahoma;-inkscape-font-specification:Tahoma;writing-mode:lr-tb;fill:#581518;fill-opacity:1;fill-rule:nonzero;stroke:none;stroke-width:0.35277778"
       inkscape:connector-curvature="0"
       id="path40"
       d="m 23.457048,269.4473 v 0.75756 h 0.902885 v 0.34067 h -0.902885 v 1.44843 q 0,0.32637 0.08814,0.41928 0.09053,0.0929 0.36449,0.0929 h 0.450251 v 0.36687 h -0.450251 q -0.507427,0 -0.700391,-0.1882 -0.192966,-0.19058 -0.192966,-0.69086 v -1.44843 h -0.321608 v -0.34067 h 0.321608 v -0.75756 z" />
    <path
       style="font-variant:normal;font-weight:normal;font-size:13.82999992px;font-family:Tahoma;-inkscape-font-specification:Tahoma;writing-mode:lr-tb;fill:#581518;fill-opacity:1;fill-rule:nonzero;stroke:none;stroke-width:0.35277778"
       inkscape:connector-curvature="0"
       id="path42"
       d="m 26.204012,270.61462 q -0.07385,-0.0429 -0.161996,-0.0619 -0.08576,-0.0214 -0.190582,-0.0214 -0.371636,0 -0.571748,0.24299 -0.19773,0.24061 -0.19773,0.69324 v 1.40555 h -0.440722 v -2.66816 h 0.440722 v 0.41452 q 0.138172,-0.24299 0.359725,-0.35972 0.221552,-0.11912 0.538396,-0.11912 0.04526,0 0.100056,0.007 0.05479,0.005 0.121497,0.0167 z" />
    <path
       style="font-variant:normal;font-weight:normal;font-size:13.82999992px;font-family:Tahoma;-inkscape-font-specification:Tahoma;writing-mode:lr-tb;fill:#581518;fill-opacity:1;fill-rule:nonzero;stroke:none;stroke-width:0.35277778"
       inkscape:connector-curvature="0"
       id="path44"
       d="m 26.41432,270.20486 h 0.43834 v 2.66816 h -0.43834 z m 0,-1.03867 h 0.43834 v 0.55507 h -0.43834 z" />
    <path
       style="font-variant:normal;font-weight:normal;font-size:13.82999992px;font-family:Tahoma;-inkscape-font-specification:Tahoma;writing-mode:lr-tb;fill:#581518;fill-opacity:1;fill-rule:nonzero;stroke:none;stroke-width:0.35277778"
       inkscape:connector-curvature="0"
       id="path46"
       d="m 29.451712,270.3073 v 0.40975 q -0.185818,-0.10243 -0.374018,-0.15246 -0.185819,-0.0524 -0.376401,-0.0524 -0.426429,0 -0.662275,0.27158 -0.235846,0.2692 -0.235846,0.75756 0,0.48837 0.235846,0.75995 0.235846,0.2692 0.662275,0.2692 0.190582,0 0.376401,-0.05 0.1882,-0.0524 0.374018,-0.15485 v 0.40499 q -0.183436,0.0858 -0.381165,0.12865 -0.195347,0.0429 -0.4169,0.0429 -0.602718,0 -0.957678,-0.37879 -0.35496,-0.37878 -0.35496,-1.022 0,-0.65274 0.357342,-1.02676 0.359725,-0.37402 0.983883,-0.37402 0.202495,0 0.39546,0.0429 0.192965,0.0405 0.374018,0.12388 z m -0.619394,2.56572 q 0.131026,0.1477 0.195348,0.27158 0.06432,0.12626 0.06432,0.24061 0,0.21202 -0.142937,0.31923 -0.142937,0.10958 -0.424046,0.10958 -0.109585,0 -0.214406,-0.0143 -0.102438,-0.0143 -0.204876,-0.0429 v -0.31208 q 0.081,0.0405 0.169142,0.0572 0.08815,0.0191 0.200112,0.0191 0.140554,0 0.212023,-0.0572 0.07147,-0.0572 0.07147,-0.16676 0,-0.0715 -0.05241,-0.17629 -0.05003,-0.10244 -0.157231,-0.24776 z" />
    <path
       style="font-variant:normal;font-weight:normal;font-size:13.82999992px;font-family:Tahoma;-inkscape-font-specification:Tahoma;writing-mode:lr-tb;fill:#581518;fill-opacity:1;fill-rule:nonzero;stroke:none;stroke-width:0.35277778"
       inkscape:connector-curvature="0"
       id="path48"
       d="m 30.998232,271.53179 q -0.531249,0 -0.736125,0.1215 -0.204876,0.1215 -0.204876,0.41452 0,0.23346 0.152466,0.37163 0.154848,0.13579 0.419282,0.13579 0.364489,0 0.583659,-0.25728 0.221552,-0.25967 0.221552,-0.68848 v -0.0977 z m 0.874298,-0.18105 v 1.52228 h -0.43834 v -0.40499 q -0.150083,0.24299 -0.374018,0.35973 -0.223935,0.11435 -0.547925,0.11435 -0.409753,0 -0.652746,-0.2287 -0.240611,-0.23108 -0.240611,-0.61701 0,-0.45026 0.300168,-0.67896 0.30255,-0.22869 0.900503,-0.22869 h 0.614629 v -0.0429 q 0,-0.30255 -0.200111,-0.46692 -0.19773,-0.16676 -0.557455,-0.16676 -0.228699,0 -0.445487,0.0548 -0.216788,0.0548 -0.416899,0.16438 v -0.40499 q 0.24061,-0.0929 0.466927,-0.13817 0.226317,-0.0477 0.440723,-0.0477 0.578894,0 0.864769,0.30017 0.285873,0.30017 0.285873,0.91003 z m -1.141113,-1.74145 -0.13579,-0.13102 q -0.05241,-0.0477 -0.09291,-0.0691 -0.03812,-0.0238 -0.06909,-0.0238 -0.09053,0 -0.133407,0.0881 -0.04288,0.0858 -0.04765,0.28111 h -0.297786 q 0.0048,-0.32161 0.126261,-0.49551 0.121497,-0.17629 0.338285,-0.17629 0.09053,0 0.166759,0.0333 0.07623,0.0334 0.164378,0.11197 l 0.13579,0.13102 q 0.05241,0.0476 0.09053,0.0715 0.0405,0.0214 0.07147,0.0214 0.09053,0 0.133407,-0.0858 0.04288,-0.0882 0.04765,-0.28349 H 31.5271 q -0.0048,0.3216 -0.126262,0.49789 -0.121496,0.17391 -0.338284,0.17391 -0.09053,0 -0.16676,-0.0334 -0.07623,-0.0333 -0.164377,-0.11197 z" />
    <path
       style="font-variant:normal;font-weight:normal;font-size:13.82999992px;font-family:Tahoma;-inkscape-font-specification:Tahoma;writing-mode:lr-tb;fill:#581518;fill-opacity:1;fill-rule:nonzero;stroke:none;stroke-width:0.35277778"
       inkscape:connector-curvature="0"
       id="path50"
       d="m 33.380992,270.51218 q -0.352577,0 -0.557454,0.27634 -0.204876,0.27396 -0.204876,0.7528 0,0.47884 0.202494,0.75519 0.204876,0.27396 0.559836,0.27396 0.350196,0 0.555072,-0.27634 0.204877,-0.27635 0.204877,-0.75281 0,-0.47407 -0.204877,-0.75042 -0.204876,-0.27872 -0.555072,-0.27872 z m 0,-0.37164 q 0.571748,0 0.898121,0.37164 0.326373,0.37163 0.326373,1.02914 0,0.65513 -0.326373,1.02915 -0.326373,0.37164 -0.898121,0.37164 -0.57413,0 -0.900503,-0.37164 -0.32399,-0.37402 -0.32399,-1.02915 0,-0.65751 0.32399,-1.02914 0.326373,-0.37164 0.900503,-0.37164 z" />
    <path
       d="m 1.3148354,286.24982 3.3752013,-1.948 c 0.4077053,-0.2352 0.8615186,-0.3531 1.3137091,-0.3531 0.4521906,0 0.9060039,0.1179 1.3137092,0.3531 l 3.375201,1.948 c 0.405377,0.23407 0.733778,0.5685 0.961179,0.9621 0.228,0.3937 0.35373,0.84589 0.35373,1.31459 v 3.8959 c 0,0.4687 -0.12573,0.92089 -0.353201,1.3148 -0.227507,0.39278 -0.556401,0.72711 -0.962907,0.96178 l -3.3731906,1.9474 c -0.4073172,0.23601 -0.8615186,0.3538 -1.3145206,0.3538 -0.4521905,0 -0.9060038,-0.11779 -1.3137091,-0.3532 l -3.3752013,-1.948 c -0.40639999,-0.23467 -0.73497721,-0.569 -0.9616722,-0.96178 -0.22750639,-0.39391 -0.353201107023,-0.8461 -0.353201107023,-1.3148 v -3.8959 c 0,-0.4687 0.125694717023,-0.92089 0.353201107023,-1.31502 0.22789444,-0.39317 0.5564011,-0.7276 0.9616722,-0.96167"
       style="fill:#581518;fill-opacity:1;fill-rule:nonzero;stroke:none;stroke-width:0.35277778"
       id="path1434"
       inkscape:connector-curvature="0" />
    <path
       d="m 5.8745586,293.52879 c 0.184397,0 -0.01591,0.17293 0.2905831,-0.0323 0.1395236,0.12129 0.1520119,0.005 0.1938161,0.1615 -0.3673122,0.0855 -0.3285067,0.0964 -0.7427031,0 0.083185,-0.1137 -0.023707,-0.0214 0.1140884,-0.0796 0.052211,-0.0221 0.097014,-0.0496 0.1442155,-0.0496 z M 5.5839403,288.4913 c 0.023495,0.0164 0.017216,0.0163 0.061419,0.0355 0.2430992,0.10562 0.4201936,0.19583 0.6490053,-0.003 0.2094794,-0.005 0.3063875,-0.0723 0.6393744,0.1356 0.1879247,0.1172 0.3349978,0.20959 0.4071056,0.46479 0.2948163,1.04369 -0.2772834,2.61228 -0.574287,3.61759 l -0.2139244,0.658 -0.2389717,-0.0447 c -0.1891241,-0.0754 -0.1807986,-0.0589 -0.1807986,-0.24589 0.1858786,0 0.1806928,-0.002 0.3469922,-0.20161 0.2389011,-0.28621 0.09391,-0.66601 -0.1829152,-0.6386 -0.1431925,0.0141 -0.1512006,0.1064 -0.3901017,0.1621 -0.1024819,-0.0686 -0.1715911,-0.1827 -0.3529894,-0.16249 -0.3554942,0.0396 -0.1402998,0.45498 0.00247,0.6422 0.092004,0.12079 0.175895,0.19449 0.3505906,0.1984 v 0.19378 c -0.1865842,0.0155 -0.2456745,0.1245 -0.4520848,0.12912 l -0.4078111,-1.27131 c -0.2095852,-0.70859 -0.9121069,-2.89069 -0.095991,-3.43041 0.1909939,-0.12629 0.3264958,-0.21491 0.6329892,-0.2389 z m 1.194823,1.84069 c 0,0.21421 0.2461684,0.27792 0.3711928,0.14453 0.2910769,-0.31083 -0.3711928,-0.58522 -0.3711928,-0.14453 z m -1.937526,0 c 0,0.29683 0.4520141,0.2746 0.4520141,0 0,-0.26829 -0.4520141,-0.3398 -0.4520141,0 z m -2.2280739,-0.0778 v -0.0753 c 0.026494,-0.25001 0.3057878,-0.54892 0.569595,-0.69811 0.3373967,-0.191 0.7971014,-0.21449 1.2386733,-0.21449 0.00282,-0.1306 0.065511,-0.303 0.1175103,-0.3991 0.083503,-0.1542 0.1229078,-0.216 0.2377017,-0.2467 -0.1199798,-0.2268 -0.1853848,-0.53742 -0.3228975,-0.7427 -0.1830917,0.0152 -0.2684992,0.0891 -0.3885848,0.16048 -0.067627,0.0401 -0.1084086,0.0653 -0.1823155,0.1082 l -0.4758972,0.3314 c -0.073907,0.0551 -0.4062942,0.36699 -0.4062942,0.11031 0,-0.12051 0.2597856,-0.29062 0.3467806,-0.3635 0.063006,-0.0528 0.1177219,-0.11681 0.1778,-0.17749 l 0.564903,-0.50062 c 0.2206978,-0.18511 0.5368219,-0.60749 0.8120239,-0.50719 0.3934883,0.1434 0.7592836,1.0583 0.7785805,1.2905 l 0.1301045,0.0372 c 0.3656894,0.14277 0.2170994,-0.0124 0.5157963,-0.0372 0.034996,-0.15039 0.1059039,-0.29412 0.1568098,-0.4244 0.05521,-0.14171 0.1060097,-0.23802 0.1764947,-0.3726 0.1068916,-0.20419 0.3177116,-0.52702 0.6031089,-0.52702 0.085584,0 0.6529916,0.5067 0.7185024,0.57323 0.094686,0.096 0.11938,0.11409 0.2239786,0.1958 0.074824,0.0586 0.1399117,0.13758 0.2114198,0.20838 0.1467908,0.1451 0.5801077,0.45692 0.6221941,0.63722 -0.1600905,0.10718 -0.1024114,0.0977 -0.4332111,-0.14813 C 8.3643583,288.293 7.8320519,287.901 7.5537455,287.87782 l -0.1516944,0.36509 c -0.053904,0.1343 -0.1061861,0.237 -0.1389944,0.37761 0.1533877,0.22899 0.2057752,0.14288 0.3230033,0.6458 l 0.6705952,0.0393 c 0.416807,0.0565 0.7265811,0.22648 0.9853084,0.56508 0.067769,0.0887 0.1524,0.20549 0.1524,0.3321 0,0.442 -1.2261145,0.6591 -1.2917311,-0.12918 -0.2697692,0 -0.2591859,-0.0202 -0.4843992,0.0323 -0.015381,0.69272 -0.5254978,2.35441 -0.7622822,3.048 -0.1139119,0.33341 -0.147708,0.5116 -0.3476978,0.64693 -0.3018013,0.2045 -0.8050036,0.1803 -1.0460213,-0.0211 C 5.1991656,293.5598 4.9247398,292.435 4.7969637,292.05541 L 4.5829334,291.2684 c -0.075671,-0.30208 -0.1937808,-0.80331 -0.1937808,-1.16251 -0.2252134,-0.0525 -0.2144889,-0.0323 -0.4843992,-0.0323 -0.022507,0.27008 -0.2023181,0.51667 -0.5488869,0.51667 -0.518407,0 -0.7202311,-0.14587 -0.7427031,-0.33609 z m 2.9707769,2.20899 c 0.062301,0.0329 0.062512,0.0243 0.1205089,0.0732 0.10541,0.089 0.013406,0.0882 0.2669822,0.0882 0.1224139,0 0.2770011,-0.10911 0.3552119,-0.16143 0.1787173,0.26691 -0.1080911,0.44221 -0.2260952,0.45212 -0.038488,-0.14429 -0.155187,-0.14429 -0.1937103,0 -0.1186744,-0.0317 -0.1494014,-0.0791 -0.2184047,-0.16919 -0.066181,-0.0864 -0.100577,-0.14161 -0.1044928,-0.28293 z m 2.034293,-2.58329 v -0.2584 c 0.2581275,0 0.2984147,0.0576 0.3875264,0.22609 -0.1855964,0 -0.2459214,0.0288 -0.3875264,0.0323 z m -3.2613952,-0.1615 c 0,0.21262 -0.012488,0.0711 0.032315,0.1615 -0.1407937,-0.003 -0.2021064,-0.0323 -0.3874912,-0.0323 0.044097,-0.16499 0.1764948,-0.22609 0.3874912,-0.22609 -0.02219,0.0394 -0.032315,0.0346 -0.032315,0.0969 z m 3.6489216,-0.22599 c 0.3572933,0 0.7885994,0.1638 0.9933869,0.39508 0.142487,0.1609 0.1690864,0.21523 0.1690864,0.37991 -0.1915936,0.10142 -0.1579739,0.0725 -0.32258,0.0994 -0.1196975,0.0196 -0.081809,0.0379 -0.175895,0.0204 -0.3650191,-0.0679 -0.3245203,-0.2485 -0.4477103,-0.563 -0.058596,-0.14968 -0.037006,-0.13218 -0.1389944,-0.24151 l -0.045014,-0.0487 c -0.00437,-0.005 -0.012206,-0.0161 -0.015804,-0.0204 -0.00367,-0.005 -0.010971,-0.0141 -0.016475,-0.0212 z m -4.0040983,0 c -0.00582,0.005 -0.015205,0.005 -0.017815,0.0145 l -0.1121128,0.11388 c -0.1156758,0.18672 -0.1369836,0.40502 -0.2184753,0.55651 -0.064911,0.12089 -0.1616075,0.19762 -0.3394075,0.21579 -0.00691,7.1e-4 -0.015487,0.002 -0.022295,0.002 l -0.400297,-0.0835 c -0.2602088,-0.13582 0.2692048,-0.81901 1.1104033,-0.81901 z m 3.8749816,-1.7115 h 0.032209 l -0.026811,0.0377 z m 0,0 c -0.2611966,-0.0217 -0.4062941,-0.2069 -0.560705,0.11741 -0.094474,0.1984 -0.150883,0.41218 -0.2465916,0.59298 -0.1502833,-0.0795 -0.30861,-0.17639 -0.5167136,-0.19371 l 0.25781,-0.61397 c 0.062301,-0.12221 0.2746022,-0.49781 0.4526139,-0.45163 l 0.3148894,0.26642 c 0.1036108,0.1059 0.2188986,0.1634 0.2986969,0.2825 z m -3.7781088,0.0323 c 0.053799,-0.0734 0.5938308,-0.5812 0.7104239,-0.5812 0.2385836,0 0.6294967,0.86953 0.645795,1.0656 -0.2301875,0.005 -0.3627967,0.11233 -0.5167136,0.19371 -0.026705,-0.11469 -0.1021997,-0.2751 -0.1515886,-0.3973 -0.1315861,-0.32628 -0.04639,-0.14298 -0.2035175,-0.37758 -0.3254728,0 -0.2729795,0.0476 -0.4843992,0.0968"
       style="fill:#f6a31c;fill-opacity:1;fill-rule:evenodd;stroke:none;stroke-width:0.35277778"
       id="path1436"
       inkscape:connector-curvature="0" />
    <path
       d="m 14.534336,286.24982 3.375201,-1.948 c 0.407705,-0.2352 0.861624,-0.3531 1.313709,-0.3531 0.452296,0 0.906004,0.1179 1.313709,0.3531 l 3.375202,1.948 c 0.405377,0.23407 0.733777,0.5685 0.961178,0.9621 0.228,0.3937 0.35373,0.84589 0.35373,1.31459 v 3.8959 c 0,0.4687 -0.12573,0.92089 -0.353201,1.3148 -0.227506,0.39278 -0.556401,0.72711 -0.962907,0.96178 l -3.37312,1.9474 c -0.407388,0.23601 -0.861589,0.3538 -1.314591,0.3538 -0.452085,0 -0.906004,-0.11779 -1.313709,-0.3532 l -3.375201,-1.948 c -0.4064,-0.23467 -0.734978,-0.569 -0.961673,-0.96178 -0.227506,-0.39391 -0.353201,-0.8461 -0.353201,-1.3148 v -3.8959 c 0,-0.4687 0.125695,-0.92089 0.353201,-1.31502 0.227895,-0.39317 0.556402,-0.7276 0.961673,-0.96167"
       style="fill:#581518;fill-opacity:1;fill-rule:nonzero;stroke:none;stroke-width:0.35277778"
       id="path1438"
       inkscape:connector-curvature="0" />
    <path
       d="m 27.753836,286.24982 3.375201,-1.948 c 0.407706,-0.2352 0.861625,-0.3531 1.313709,-0.3531 0.452297,0 0.906004,0.1179 1.31371,0.3531 l 3.375201,1.948 c 0.405377,0.23407 0.733778,0.5685 0.961178,0.9621 0.228,0.3937 0.35373,0.84589 0.35373,1.31459 v 3.8959 c 0,0.4687 -0.12573,0.92089 -0.353201,1.3148 -0.227506,0.39278 -0.556401,0.72711 -0.962801,0.96178 l -3.373226,1.9474 c -0.407387,0.23601 -0.861589,0.3538 -1.314591,0.3538 -0.452084,0 -0.906003,-0.11779 -1.313709,-0.3532 l -3.375201,-1.948 c -0.4064,-0.23467 -0.734871,-0.569 -0.961672,-0.96178 -0.227507,-0.39391 -0.353201,-0.8461 -0.353201,-1.3148 v -3.8959 c 0,-0.4687 0.125694,-0.92089 0.353201,-1.31502 0.227894,-0.39317 0.556401,-0.7276 0.961672,-0.96167"
       style="fill:#581518;fill-opacity:1;fill-rule:nonzero;stroke:none;stroke-width:0.35277778"
       id="path1440"
       inkscape:connector-curvature="0" />
    <path
       d="m 40.973336,286.24982 3.375202,-1.948 c 0.407705,-0.2352 0.861624,-0.3531 1.313709,-0.3531 0.452296,0 0.906004,0.1179 1.313709,0.3531 l 3.375201,1.948 c 0.405377,0.23407 0.733778,0.5685 0.961178,0.9621 0.228001,0.3937 0.353695,0.84589 0.353695,1.31459 v 3.8959 c 0,0.4687 -0.125694,0.92089 -0.353165,1.3148 -0.227507,0.39278 -0.556402,0.72711 -0.962802,0.96178 l -3.373225,1.9474 c -0.407282,0.23601 -0.861589,0.3538 -1.314591,0.3538 -0.452085,0 -0.906004,-0.11779 -1.313709,-0.3532 l -3.375202,-1.948 c -0.4064,-0.23467 -0.734871,-0.569 -0.961672,-0.96178 -0.227506,-0.39391 -0.353131,-0.8461 -0.353131,-1.3148 v -3.8959 c 0,-0.4687 0.125625,-0.92089 0.353131,-1.31502 0.227894,-0.39317 0.556401,-0.7276 0.961672,-0.96167"
       style="fill:#581518;fill-opacity:1;fill-rule:nonzero;stroke:none;stroke-width:0.35277778"
       id="path1442"
       inkscape:connector-curvature="0" />
    <path
       d="m 17.707466,288.25882 c -0.188313,-0.12601 -0.365231,-0.2008 -0.563704,-0.24211 -0.226201,-0.047 -0.484399,-0.0522 -0.820208,-0.0407 0.0018,0.31782 0.0284,0.55922 0.08901,0.7748 0.05299,0.1886 0.132785,0.35952 0.245604,0.54709 0.118992,-0.21089 0.267687,-0.4052 0.440972,-0.57799 0.178611,-0.1779 0.383222,-0.33341 0.60833,-0.46108 z m 2.006176,2.49298 c 0.120721,0 0.218617,0.0979 0.218617,0.21861 0,0.12079 -0.0979,0.21869 -0.218617,0.21869 -0.120791,0 -0.218686,-0.0979 -0.218686,-0.21869 0,-0.12072 0.0979,-0.21861 0.218686,-0.21861 z m -0.857779,0 c 0.120791,0 0.218687,0.0979 0.218687,0.21861 0,0.12079 -0.0979,0.21869 -0.218687,0.21869 -0.12072,0 -0.218616,-0.0979 -0.218616,-0.21869 0,-0.12072 0.0979,-0.21861 0.218616,-0.21861 z m -0.826629,-1.4296 c 0.120721,0 0.218617,0.0979 0.218617,0.21872 0,0.12069 -0.0979,0.21858 -0.218617,0.21858 -0.120791,0 -0.218686,-0.0979 -0.218686,-0.21858 0,-0.12083 0.09789,-0.21872 0.218686,-0.21872 z m 2.472302,0 c 0.120721,0 0.218617,0.0979 0.218617,0.21872 0,0.12069 -0.0979,0.21858 -0.218617,0.21858 -0.120791,0 -0.218687,-0.0979 -0.218687,-0.21858 0,-0.12083 0.0979,-0.21872 0.218687,-0.21872 z m -1.27829,-1.4575 c 0.477591,0 0.928194,0.10671 1.32521,0.29552 0.241476,-0.17681 0.461892,-0.2769 0.71568,-0.32971 0.264795,-0.055 0.561905,-0.0571 0.957404,-0.0411 l 0.09052,0.004 7.06e-4,0.0905 c 0.0032,0.3828 -0.02438,0.66541 -0.0955,0.91859 -0.06759,0.24042 -0.17339,0.45181 -0.328295,0.69431 0.142593,0.314 0.221509,0.65849 0.221509,1.01998 0,0.73353 -0.32452,1.39743 -0.848995,1.87773 -0.522323,0.47819 -1.243012,0.774 -2.038314,0.774 -0.795197,0 -1.515887,-0.29581 -2.038209,-0.774 -0.524475,-0.4803 -0.848995,-1.1442 -0.848995,-1.87773 0,-0.36149 0.07892,-0.70598 0.221615,-1.01998 -0.154905,-0.2424 -0.260809,-0.45389 -0.328295,-0.69431 -0.07123,-0.25318 -0.09881,-0.53579 -0.0955,-0.91859 l 7.05e-4,-0.0905 0.09042,-0.004 c 0.395499,-0.016 0.692574,-0.0139 0.957404,0.0411 0.253788,0.0528 0.474204,0.1529 0.71568,0.32971 0.397016,-0.18881 0.847619,-0.29552 1.325104,-0.29552 z m 1.910115,0.91411 c -0.488103,-0.44689 -1.163425,-0.7234 -1.910115,-0.7234 -0.746583,0 -1.421906,0.27651 -1.910009,0.7234 -0.485881,0.44489 -0.786483,1.0594 -0.786483,1.73768 0,0.67832 0.300602,1.29272 0.786483,1.73761 0.488103,0.447 1.163426,0.72341 1.910009,0.72341 0.74669,0 1.422012,-0.27641 1.910115,-0.72341 0.485881,-0.44489 0.786483,-1.05929 0.786483,-1.73761 0,-0.67839 -0.300602,-1.29279 -0.786483,-1.73768 z m -1.848626,1.07051 c 0.372816,0 0.711412,0.12718 0.957122,0.3327 0.250507,0.20938 0.405482,0.5001 0.405482,0.82219 0,0.32208 -0.154975,0.61281 -0.405482,0.82218 -0.24571,0.20553 -0.584306,0.33271 -0.957122,0.33271 -0.37278,0 -0.711376,-0.12718 -0.957192,-0.33271 -0.250401,-0.20937 -0.405412,-0.49999 -0.405412,-0.82218 0,-0.32219 0.155011,-0.61281 0.405412,-0.82219 0.245816,-0.20552 0.584412,-0.3327 0.957192,-0.3327 z m 0.834919,0.47868 c -0.212689,-0.1779 -0.507894,-0.288 -0.834919,-0.288 -0.326989,0 -0.622194,0.1101 -0.834989,0.288 -0.208104,0.17399 -0.336903,0.41321 -0.336903,0.67621 0,0.26299 0.128799,0.50221 0.336903,0.6762 0.212795,0.17791 0.508,0.28801 0.834989,0.28801 0.327025,0 0.62223,-0.1101 0.834919,-0.28801 0.20821,-0.17399 0.337009,-0.41321 0.337009,-0.6762 0,-0.263 -0.128799,-0.50222 -0.337009,-0.67621 z m 1.183288,-2.31129 c -0.198579,0.0413 -0.375497,0.11599 -0.56381,0.24211 0.225108,0.12767 0.429719,0.28318 0.60833,0.46108 0.173285,0.17279 0.322086,0.3671 0.441078,0.57799 0.112713,-0.18757 0.192511,-0.35849 0.245604,-0.54709 0.0605,-0.21558 0.0871,-0.45698 0.0889,-0.7748 -0.335703,-0.0115 -0.594007,-0.006 -0.820102,0.0407"
       style="fill:#f6a31c;fill-opacity:1;fill-rule:nonzero;stroke:none;stroke-width:0.35277778"
       id="path1444"
       inkscape:connector-curvature="0" />
    <path
       d="m 30.278455,288.68162 c 0.09839,-0.26401 0.233292,-0.42721 0.409081,-0.5009 0.01792,-0.008 0.03612,-0.014 0.05461,-0.0196 0.113806,-0.61718 0.297109,-0.609 0.736494,-0.58889 0.09712,0.005 0.208915,0.01 0.335598,0.006 0.0025,-1e-4 0.0051,-1e-4 0.0077,-1e-4 0.05249,0.002 0.0937,0.0455 0.09197,0.098 l -0.0078,0.2432 c -0.0082,0.2552 -0.186902,0.3682 -0.405271,0.4148 0.3169,0.24278 0.564268,0.771 0.768773,1.20777 0.148308,0.31683 0.272098,0.58103 0.345511,0.6066 2.82e-4,1.1e-4 0.01111,-0.0301 0.03651,-0.10329 0.640398,-1.8384 1.045175,-1.84528 2.181084,-1.8645 0.158503,-0.003 0.332211,-0.006 0.527615,-0.0147 0.05239,-0.002 0.0968,0.0385 0.09899,0.0909 3.53e-4,0.0124 -0.0014,0.0244 -0.0052,0.0354 -0.0877,0.25057 -0.155504,0.42799 -0.272415,0.56088 -0.02099,0.0239 -0.04339,0.0462 -0.06742,0.0668 l 0.252413,-0.006 c 0.05239,-0.001 0.09581,0.0407 0.0968,0.0931 1.06e-4,0.003 0,0.006 -2.12e-4,0.009 h 2.12e-4 c -0.02628,0.34752 -0.409398,0.5878 -0.663504,0.7385 h 0.593795 c 0.0527,0 0.09543,0.0428 0.09543,0.0954 0,0.008 -0.0011,0.0149 -0.0025,0.0219 -3.17e-4,0.008 -0.0011,0.017 -0.0025,0.0256 -0.004,0.0223 -0.01161,0.0548 -0.02572,0.0956 l -1.76e-4,2.8e-4 1.76e-4,10e-5 c -0.06029,0.1735 -0.24518,0.4898 -0.801476,0.68711 -1.05e-4,0.011 -0.0011,0.0223 -0.0036,0.0342 -0.175719,0.80483 -0.607801,1.33791 -1.137497,1.62423 -0.170815,0.0923 -0.351825,0.15878 -0.537527,0.20038 v 0.24842 h 0.2915 c 0.0526,0 0.09532,0.0427 0.09532,0.0953 0,0.0526 -0.04272,0.0954 -0.09532,0.0954 h -0.2915 v 0.19611 h 0.2915 c 0.0526,0 0.09532,0.0427 0.09532,0.0954 0,0.0526 -0.04272,0.0953 -0.09532,0.0953 H 32.93723 c -0.01542,0.0106 -0.03411,0.0168 -0.05412,0.0168 -0.02011,0 -0.0387,-0.006 -0.05412,-0.0168 h -0.231881 -0.180693 -0.152118 c -0.01528,0.0106 -0.03401,0.0168 -0.05398,0.0168 -0.02011,0 -0.03874,-0.006 -0.05412,-0.0168 h -0.412609 c -0.0527,0 -0.09539,-0.0427 -0.09539,-0.0953 0,-0.0527 0.04269,-0.0954 0.09539,-0.0954 h 0.371299 v -0.2915 -0.32491 c -0.270581,-0.0469 -0.534176,-0.14288 -0.774877,-0.28529 -0.545606,-0.32269 -0.974407,-0.88311 -1.102218,-1.6504 -0.0011,-0.008 -0.0018,-0.0153 -0.0011,-0.0227 l 0.0028,-0.2486 c -0.142698,0.0619 -0.265712,0.0719 -0.3671,0.0466 -0.08999,-0.0224 -0.161996,-0.0715 -0.215583,-0.13702 -0.05133,-0.0628 -0.0852,-0.14058 -0.101317,-0.22401 -0.03119,-0.16108 0.005,-0.34678 0.111619,-0.48327 l 0.01397,-0.0181 0.02021,-0.01 0.424215,-0.20098 -0.517419,-0.24963 -0.211808,-0.10219 0.223308,-0.074 0.658813,-0.2182 z m 0.625581,-0.073 c 0.08671,0 0.165205,0.0352 0.222003,0.0919 0.05673,0.0568 0.0919,0.13532 0.0919,0.222 0,0.0867 -0.03517,0.16531 -0.0919,0.222 l -1.77e-4,-2.1e-4 c -0.05701,0.057 -0.135502,0.0922 -0.221826,0.0922 -0.08629,0 -0.164677,-0.0351 -0.221686,-0.092 l -3.17e-4,-2.8e-4 c -0.05687,-0.057 -0.09197,-0.13543 -0.09197,-0.22172 0,-0.0863 0.03517,-0.16478 0.09207,-0.22179 l -1.05e-4,-2.1e-4 c 0.05673,-0.0567 0.135325,-0.0919 0.222003,-0.0919 z m 0.0871,0.2268 c -0.02229,-0.0223 -0.05309,-0.0361 -0.0871,-0.0361 -0.03408,0 -0.06488,0.0138 -0.08717,0.0361 h -3.53e-4 c -0.02198,0.022 -0.0357,0.0529 -0.0357,0.0871 0,0.0343 0.01362,0.0651 0.0357,0.0872 l 3.53e-4,3.5e-4 c 0.02208,0.022 0.05288,0.0357 0.08717,0.0357 0.03422,0 0.06512,-0.0137 0.0871,-0.0357 v -3.5e-4 c 0.0223,-0.0223 0.03612,-0.0532 0.03612,-0.0872 0,-0.034 -0.01383,-0.0649 -0.03612,-0.0871 z m 1.796521,4.33991 v -0.2915 -0.30999 c -0.12132,0.0159 -0.24391,0.0215 -0.366324,0.0171 -0.03859,-10e-4 -0.07719,-0.004 -0.115782,-0.007 v 0.20471 h 0.2915 c 0.0526,0 0.09529,0.0427 0.09529,0.0953 0,0.0526 -0.04269,0.0954 -0.09529,0.0954 h -0.2915 v 0.19611 h 0.110808 0.180692 z m -1.773802,-2.6718 c 0.005,-0.0522 0.05129,-0.0906 0.103576,-0.0857 0.05221,0.005 0.09052,0.0513 0.08562,0.10347 -0.04819,0.50881 0.173602,0.8975 0.502003,1.14053 0.16898,0.1252 0.366606,0.21237 0.5703,0.25809 l 0.0035,7.1e-4 c 0.202106,0.0448 0.409716,0.0486 0.601521,0.008 0.2927,-0.0619 0.548182,-0.2291 0.685977,-0.51368 h -0.254494 c -0.0527,0 -0.09539,-0.0428 -0.09539,-0.0954 0,-0.0502 0.03898,-0.0915 0.0883,-0.0951 0.173602,-0.0254 0.331294,-0.0837 0.462492,-0.19583 0.111689,-0.0955 0.206516,-0.23149 0.278518,-0.421 h -1.255325 c -0.0526,0 -0.09528,-0.0428 -0.09528,-0.0954 0,-0.0526 0.04269,-0.0953 0.09528,-0.0953 h 1.387617 v 10e-5 c 0.0088,0 0.01778,0.001 0.02681,0.004 0.05038,0.0148 0.0792,0.0677 0.06438,0.11811 -0.08661,0.29319 -0.216782,0.49611 -0.37839,0.63418 -0.03619,0.0309 -0.0738,0.0585 -0.112712,0.083 0.02169,0.0244 0.0302,0.0594 0.0194,0.0927 -0.141816,0.4341 -0.481612,0.68199 -0.878487,0.76588 -0.217805,0.046 -0.453002,0.0418 -0.681108,-0.009 l -0.0042,-10e-4 c -0.228706,-0.0513 -0.45092,-0.14951 -0.641808,-0.2909 -0.378002,-0.27979 -0.633307,-0.72659 -0.577992,-1.311 z m -0.771913,-0.36502 0.0074,-0.661 -0.445206,0.21093 c -0.06191,0.0903 -0.08188,0.20877 -0.0617,0.3133 0.01019,0.0528 0.03101,0.10118 0.06202,0.1391 0.02868,0.0351 0.06657,0.0613 0.113488,0.073 0.0799,0.0199 0.187607,0.002 0.323991,-0.0753 z m 0.01079,-0.96269 0.0032,-0.286 -0.353413,0.11712 0.350203,0.16888 z m 0.688411,-1.03858 c 0.06851,0.002 0.141005,0.0149 0.217487,0.0367 0.256611,10e-4 0.550404,-0.0363 0.557601,-0.26021 l 0.0046,-0.14408 c -0.09331,-3.1e-4 -0.176106,-0.004 -0.250401,-0.007 -0.305294,-0.014 -0.442525,-0.0201 -0.529308,0.375 z m 0.189688,0.22638 c -0.01898,-2.9e-4 -0.03778,-7.1e-4 -0.0563,-0.001 -0.0665,-0.002 -0.122273,-0.006 -0.170497,-0.008 -0.03408,-0.002 -0.06498,-0.004 -0.08439,-0.005 l -0.0011,-1.1e-4 c -0.0037,-7e-5 -0.0074,-3.5e-4 -0.01118,-0.001 -0.0048,-7.1e-4 -0.0095,-0.002 -0.01401,-0.003 -0.01118,0.004 -0.02229,0.007 -0.03298,0.0119 -0.129928,0.0544 -0.23301,0.19071 -0.313302,0.4185 l -0.0205,1.8239 c 0.118992,0.70312 0.511493,1.21592 1.010003,1.5108 0.303883,0.17981 0.646995,0.27901 0.991376,0.29129 0.343606,0.0123 0.688799,-0.062 0.997515,-0.22888 0.483587,-0.2613 0.878981,-0.75219 1.041505,-1.4968 2.83e-4,-10e-4 -3.52e-4,-0.004 -7.05e-4,-0.01 -0.0025,-0.0598 -0.0053,-0.1197 0.08209,-0.14848 0.500521,-0.16472 0.669008,-0.42281 0.7251,-0.57101 h -0.611294 c -0.153599,0 -0.217311,-0.041 -0.217311,-0.1221 0,-0.0799 0.09391,-0.13532 0.225425,-0.213 0.190183,-0.11229 0.487186,-0.2878 0.577286,-0.50352 l -0.630414,0.0139 c -0.04928,0.005 -0.0949,-0.0288 -0.10347,-0.0784 -0.0091,-0.0518 0.02558,-0.10121 0.0774,-0.11021 0.225989,-0.0401 0.357081,-0.1022 0.447569,-0.2051 0.07542,-0.0857 0.129399,-0.20518 0.188701,-0.36569 -0.138995,0.005 -0.269699,0.007 -0.391689,0.009 -1.037908,0.0176 -1.407795,0.0239 -2.004484,1.73722 -0.06971,0.2001 -0.163618,0.26039 -0.278729,0.22021 -0.148873,-0.0518 -0.288079,-0.34911 -0.454978,-0.70563 -0.221297,-0.47279 -0.4959,-1.05929 -0.818621,-1.20258 -0.05179,-0.023 -0.101176,-0.0419 -0.148096,-0.0565 z m 3.509928,1.44942 c -0.0035,0.002 -0.0051,0.006 -0.0051,0.0109 0,0.0206 0.0018,0.009 0.0051,-0.0109"
       style="fill:#f6a31c;fill-opacity:1;fill-rule:nonzero;stroke:none;stroke-width:0.35277778"
       id="path1446"
       inkscape:connector-curvature="0" />
    <path
       d="m 44.968439,293.10422 c -0.05218,0.005 -0.09878,-0.0331 -0.103893,-0.0853 -0.0051,-0.0522 0.03309,-0.0988 0.0853,-0.10393 0.0011,0 0.363114,-0.0468 0.389784,0.21992 0.01753,0.17569 0.0176,0.2194 0.0176,0.2195 0,0.0526 -0.04269,0.0954 -0.09539,0.0954 -0.0526,0 -0.09529,-0.0428 -0.09529,-0.0954 0,-10e-5 -1.06e-4,-0.0404 -0.01612,-0.2009 -0.0069,-0.0695 -0.181505,-0.0493 -0.181998,-0.0493 z m 1.444025,-0.18923 c 0.05218,0.005 0.09038,0.0517 0.0853,0.10393 -0.0051,0.0522 -0.05172,0.0904 -0.103929,0.0853 -3.53e-4,0 -0.174978,-0.0202 -0.181998,0.0493 -0.01598,0.16051 -0.01598,0.2008 -0.01598,0.2009 0,0.0526 -0.04283,0.0954 -0.09543,0.0954 -0.0526,0 -0.09528,-0.0428 -0.09528,-0.0954 0,-1e-4 0,-0.0438 0.0175,-0.2195 0.02671,-0.2667 0.388797,-0.21992 0.38982,-0.21992 z m -0.763729,-0.67359 c 0.381,0 0.727816,0.0887 0.980511,0.23192 0.268887,0.1524 0.435186,0.36847 0.435186,0.61199 0,0.24349 -0.166299,0.4596 -0.435186,0.612 -0.252589,0.1432 -0.599511,0.23188 -0.980511,0.23188 -0.381,0 -0.727886,-0.0887 -0.980581,-0.23188 -0.268816,-0.1524 -0.435222,-0.36851 -0.435222,-0.612 0,-0.24352 0.166406,-0.45959 0.435222,-0.61199 0.252695,-0.1432 0.599581,-0.23192 0.980581,-0.23192 z m 0.886601,0.39751 c -0.225072,-0.1276 -0.53848,-0.20659 -0.886601,-0.20659 -0.348191,0 -0.661493,0.079 -0.886601,0.20659 -0.20888,0.11839 -0.338173,0.27661 -0.338173,0.4464 0,0.1698 0.129293,0.32798 0.338173,0.44641 0.225108,0.1276 0.53841,0.20659 0.886601,0.20659 0.348121,0 0.661529,-0.079 0.886601,-0.20659 0.208915,-0.11843 0.338208,-0.27661 0.338208,-0.44641 0,-0.16979 -0.129293,-0.32801 -0.338208,-0.4464 z m -2.131271,0.12241 c -0.114018,-0.2492 -0.291501,-0.65401 -0.438609,-1.06542 -0.100894,-0.2824 -0.188912,-0.5714 -0.234915,-0.8219 -0.03948,-0.21509 -0.084,-0.3858 -0.121285,-0.5291 -0.111901,-0.42989 -0.164606,-0.6326 0.120086,-1.03928 0.103717,-0.1482 0.221403,-0.28441 0.336691,-0.4034 0.115217,-0.11892 0.228106,-0.22091 0.322298,-0.30071 0.04011,-0.0339 0.100224,-0.0289 0.134126,0.0112 0.01619,0.0192 0.02349,0.0429 0.02229,0.0661 l 1.06e-4,0.0127 1.77e-4,0.0119 3.17e-4,0.009 v 0 l 2.82e-4,0.009 h 1.06e-4 l 7.06e-4,0.0135 v 0 l 3.53e-4,0.008 v 0 l 0.0011,0.0131 3.53e-4,0.007 h 2.11e-4 l 1.06e-4,0.002 0.0018,0.0202 2.82e-4,0.005 0.0014,0.0133 v 0 l 7.1e-5,10e-4 h 2.12e-4 l 0.0014,0.0128 v 0 l 0.0014,0.0119 3.53e-4,0.006 7.05e-4,0.004 v 0 l 3.18e-4,0.002 h 1.06e-4 l 0.0025,0.0172 1.76e-4,0.001 7.06e-4,0.007 0.0021,0.0151 h 1.05e-4 l 3.53e-4,0.003 h 2.12e-4 l 7.05e-4,0.004 3.53e-4,0.003 0.0025,0.0148 7.05e-4,0.005 0.0014,0.008 2.83e-4,-10e-5 3.52e-4,0.002 0.0011,0.007 0.0025,0.0135 1.06e-4,-7e-5 0.004,0.0201 7.05e-4,0.004 0.0036,0.0169 v 0 l 7.06e-4,0.004 h 1.06e-4 l 0.0036,0.0167 0.0011,0.006 3.52e-4,0.002 3.18e-4,-1e-4 0.0011,0.004 7.06e-4,0.004 0.0035,0.0149 7.06e-4,0.003 h 1.06e-4 l 0.0014,0.006 0.0014,0.006 0.0032,0.0134 h 2.12e-4 l 0.0052,0.0209 0.0011,0.005 0.0061,0.023 3.53e-4,0.002 h 1.76e-4 l 0.0028,0.0103 0.0014,0.007 0.0021,0.008 h 7.1e-5 l 0.0014,0.005 h 1.06e-4 l 0.0057,0.0203 7e-5,-1.1e-4 0.0057,0.0199 0.0011,0.004 0.004,0.0134 1.06e-4,-1.1e-4 3.53e-4,10e-4 0.0032,0.0105 0.0028,0.009 0.0011,0.005 0.0032,0.01 1.06e-4,3.5e-4 2.82e-4,-1.1e-4 0.0011,0.004 0.0011,0.004 0.0045,0.0143 0.0018,0.006 0.004,0.0123 h 7.1e-5 l 0.0018,0.006 0.0041,0.0128 7.1e-5,-1.1e-4 0.0032,0.01 h 1.06e-4 l 0.0028,0.008 0.0018,0.006 0.0028,0.009 7.05e-4,0.003 2.12e-4,-7e-5 0.0059,0.0175 1.06e-4,-10e-5 3.53e-4,10e-4 c 7.06e-4,0.002 0.0014,0.005 0.0021,0.007 l 0.0032,0.009 0.0018,0.005 h 1.05e-4 l 0.0039,0.0113 0.0035,0.01 1.06e-4,-1e-4 0.0025,0.007 h 1.06e-4 l 0.005,0.0138 0.0018,0.006 0.0044,0.012 7.06e-4,0.002 v 0 l 0.0025,0.006 0.207681,-0.41539 c 0.02342,-0.0469 0.0805,-0.0659 0.127423,-0.0425 0.02159,0.0108 0.03729,0.0288 0.04558,0.0496 l 2.11e-4,-1.1e-4 c 1.06e-4,3.6e-4 0.04459,0.11162 0.345582,0.4614 0.155998,0.18122 0.383328,0.211 0.548498,0.20369 l -0.01457,-0.0107 c -0.04713,-0.0346 -0.09303,-0.0677 -0.12693,-0.0907 -0.0032,-0.002 -0.0064,-0.005 -0.0093,-0.007 v 1.1e-4 c -0.02801,-0.0245 -0.05182,-0.0498 -0.0719,-0.0782 -0.0212,-0.0299 -0.03722,-0.062 -0.04822,-0.0983 -0.0014,-0.005 -0.0025,-0.009 -0.0032,-0.0138 h -2.82e-4 c -0.0091,-0.0617 -0.0086,-0.13702 -0.004,-0.21033 0.0082,-0.12679 0.02868,-0.24708 0.03358,-0.27428 l 7.06e-4,-0.005 h -1.06e-4 l 2.12e-4,-10e-4 c 0.0079,-0.0441 0.04487,-0.0757 0.08777,-0.0784 l 7.05e-4,-1e-4 0.0037,-1.1e-4 h 0.0018 l 0.0046,1.1e-4 h 2.82e-4 l 0.0039,2.8e-4 0.0025,2.1e-4 0.0057,0.001 0.0014,1.8e-4 2.12e-4,1e-4 0.0018,3.2e-4 3.53e-4,7e-5 7.05e-4,2.1e-4 0.0041,10e-4 0.0051,10e-4 c 0.0025,0.001 0.0052,0.002 0.0077,0.003 l 0.0014,7e-4 c 0.02872,0.0129 0.04872,0.0392 0.05422,0.0696 m -1.790805,2.72619 c 0.125588,0.3514 0.271003,0.69261 0.380188,0.9362 0.1143,-0.0883 0.258092,-0.16259 0.422593,-0.2177 0.20641,-0.0691 0.446228,-0.1089 0.700898,-0.1089 0.285504,0 0.552415,0.05 0.774524,0.1355 0.164994,0.0635 0.306,0.14711 0.413173,0.24529 l 0.653204,-2.03817 0.100012,-0.64971 c 0.0853,-0.5545 -0.620395,-1.161 -0.732613,-1.25349 l -0.0562,-0.0156 c -0.009,0.0294 -0.02018,0.0567 -0.03309,0.082 -0.01979,0.0566 -0.04851,0.10848 -0.08738,0.1524 -0.0393,0.0443 -0.08812,0.0798 -0.147426,0.10308 -0.122379,0.0482 -0.216606,0.0839 -0.296792,0.10393 -0.0876,0.0219 -0.159597,0.0258 -0.229412,0.008 -0.0338,-0.002 -0.06537,-0.008 -0.09387,-0.0155 -0.0036,0.0313 -0.0068,0.065 -0.0089,0.0988 -0.0037,0.0587 -0.0045,0.11779 0.0018,0.1645 0.0048,0.0134 0.01108,0.0254 0.01887,0.0365 0.0096,0.0135 0.02251,0.0272 0.03852,0.0415 0.04131,0.0281 0.08569,0.0599 0.127176,0.0905 0.07133,0.0525 0.141711,0.10619 0.175825,0.1324 v 0 l 3.52e-4,3.2e-4 0.0011,7.1e-4 0.0025,0.002 0.0011,7e-4 0.0018,10e-4 0.0028,0.002 v 1.1e-4 l 0.0025,0.002 0.0025,0.002 1.77e-4,1.8e-4 0.0045,0.003 0.0014,10e-4 -2.12e-4,2.1e-4 c 0.01602,0.0119 0.02829,0.0289 0.03433,0.0495 0.0145,0.0504 -0.01453,0.10311 -0.06491,0.11768 -0.0018,3.5e-4 -0.60519,0.17692 -0.956416,-0.23128 -0.135396,-0.1573 -0.223696,-0.27319 -0.280599,-0.35479 l -0.223908,0.44789 c -0.009,0.0213 -0.02579,0.0394 -0.04847,0.0496 -0.0477,0.0215 -0.103611,3.5e-4 -0.125518,-0.0469 l -0.0014,-0.003 -3.53e-4,-10e-4 h 2.11e-4 l -1.05e-4,-1.7e-4 -3.53e-4,-10e-4 -3.18e-4,-3.6e-4 -7e-5,-2.1e-4 -0.0011,-0.002 -0.0021,-0.004 -0.0014,-0.004 -0.0014,-0.003 -0.0014,-0.004 h 2.12e-4 l -0.0014,-0.004 -0.0011,-0.003 1.06e-4,-1.1e-4 -0.0021,-0.005 -7.06e-4,-0.001 -0.0032,-0.007 -2.11e-4,-3.5e-4 -0.0032,-0.008 1.76e-4,-1.1e-4 -3.53e-4,-10e-4 -0.0011,-0.003 v 0 l -0.0014,-0.003 -0.0011,-0.003 -1.05e-4,-7e-5 -0.0021,-0.005 -0.0018,-0.004 -0.0035,-0.008 h 2.12e-4 l -2.12e-4,-3.5e-4 -7.05e-4,-0.002 -0.0043,-0.0107 h 2.12e-4 l -3.53e-4,-10e-4 -0.0035,-0.009 -0.0025,-0.006 -0.0032,-0.008 -0.0028,-0.008 2.83e-4,-10e-5 -2.83e-4,-7.1e-4 -1.06e-4,-2.8e-4 -0.0018,-0.004 -0.0018,-0.005 -0.0028,-0.007 -7.05e-4,-0.002 3.53e-4,-10e-5 -0.0035,-0.009 -0.0028,-0.007 -0.0047,-0.0123 1.06e-4,-1.1e-4 -1.06e-4,-2.8e-4 -0.0021,-0.005 -0.0035,-0.009 -0.0011,-0.003 c -0.0011,-0.002 -0.0021,-0.004 -0.0028,-0.007 l -0.0021,-0.005 h 1.06e-4 l -1.06e-4,-2.8e-4 -0.0051,-0.0138 -7.06e-4,-0.002 -0.0043,-0.0119 -0.0028,-0.007 -0.005,-0.0139 h 2.11e-4 l -2.11e-4,-3.5e-4 -0.0025,-0.007 2.12e-4,-10e-5 -2.12e-4,-3.2e-4 -0.0035,-0.01 -0.004,-0.0114 h 1.06e-4 l -1.06e-4,-3.2e-4 -0.0021,-0.006 -0.0028,-0.009 c -0.0011,-0.002 -0.0021,-0.005 -0.0028,-0.008 l -3.53e-4,-10e-4 h 1.06e-4 l -1.06e-4,-3.5e-4 -0.0061,-0.0178 h 2.12e-4 l -0.0014,-0.004 -0.0028,-0.008 -0.0025,-0.007 -0.0028,-0.008 h 1.05e-4 l -1.05e-4,-2.9e-4 -0.0035,-0.0104 h 1.06e-4 l -1.06e-4,-3.2e-4 -0.0042,-0.0131 -0.0018,-0.006 h 1.06e-4 l -1.06e-4,-3.6e-4 -0.004,-0.0124 -0.0025,-0.007 -0.0044,-0.0141 -0.0021,-0.006 -0.0014,-0.004 3.17e-4,-1.1e-4 -0.0032,-0.01 -0.0018,-0.006 -0.0028,-0.009 -0.0032,-0.0105 -3.53e-4,-10e-4 h 1.77e-4 l -1.77e-4,-3.5e-4 -0.004,-0.0136 -0.0018,-0.006 -0.0057,-0.0199 v 0 l -7.06e-4,-0.003 -1.06e-4,-2.8e-4 h 1.06e-4 l -0.005,-0.0177 h 1.05e-4 l -1.05e-4,-3.5e-4 -0.0014,-0.005 1.06e-4,-10e-5 -1.06e-4,-2.9e-4 -0.0025,-0.009 c -7.06e-4,-0.002 -0.0018,-0.005 -0.0021,-0.007 l -0.0028,-0.0103 1.77e-4,-1e-4 -7.06e-4,-0.003 -0.006,-0.023 -0.0018,-0.006 -0.0052,-0.0209 h 1.06e-4 l -2.11e-4,-0.001 -0.0032,-0.0133 c -7.06e-4,-0.002 -0.0014,-0.005 -0.0021,-0.008 l -0.0014,-0.006 h 1.76e-4 l -1.76e-4,-7.1e-4 -0.0011,-0.004 -0.0032,-0.014 -0.0011,-0.004 -0.0011,-0.004 1.76e-4,-1.1e-4 -1.76e-4,-0.001 -7.06e-4,-0.003 -0.0018,-0.007 -0.0036,-0.0167 h 1.06e-4 l -1.06e-4,-2.8e-4 -0.0011,-0.004 h 7e-5 l -7e-5,-3.5e-4 -0.0035,-0.0166 -0.0018,-0.007 -0.0032,-0.0171 c -7.05e-4,-0.002 -0.0011,-0.005 -0.0014,-0.007 l -1.06e-4,-3.5e-4 h 1.06e-4 l -0.0018,-0.01 -0.0011,-0.005 -3.53e-4,-0.002 3.53e-4,-1.1e-4 -3.53e-4,-0.002 -0.0018,-0.01 -0.0014,-0.007 -0.0025,-0.0146 -3.53e-4,-0.003 -7.06e-4,-0.004 h 2.12e-4 l -2.12e-4,-10e-4 -7.05e-4,-0.004 v 0 -3.6e-4 l -0.0025,-0.015 -7.05e-4,-0.005 -2.12e-4,-0.002 v 0 l -3.53e-4,-0.002 -0.0021,-0.0143 c -0.05369,0.0495 -0.110102,0.10378 -0.166688,0.16231 -0.109608,0.1131 -0.220804,0.24158 -0.317394,0.37959 -0.234315,0.33489 -0.188701,0.5105 -0.09179,0.883 0.0381,0.1463 0.08347,0.3205 0.124178,0.5424 0.0435,0.23671 0.128905,0.51618 0.227612,0.7922 z m 0.425908,-2.70429 c 3.53e-4,0.005 7.06e-4,0.009 7.06e-4,0.0138 m 0.04618,0.1887 c 3.53e-4,0.003 0.0011,0.005 0.0011,0.008 m -0.05898,0.4221 v -7e-5 m 0.0604,0.14979 -2.12e-4,-3.5e-4 m 7.06e-4,10e-4 -3.53e-4,-7.1e-4 m 1.241989,-0.88039 0.0011,2.8e-4 m 0.07271,0.0758 c 0.02,0.0105 0.05239,0.0173 0.0926,0.0198 0.0071,3.6e-4 0.0139,0.002 0.0205,0.004 v -7e-5 c 0.03782,0.0108 0.08209,0.008 0.140793,-0.007 0.0702,-0.0175 0.158327,-0.0509 0.273721,-0.0963 0.0302,-0.0119 0.05479,-0.0297 0.0744,-0.0517 0.02258,-0.0256 0.03969,-0.0579 0.05158,-0.0944 0.0018,-0.005 0.0039,-0.0105 0.0065,-0.0153 h -1.06e-4 c 0.01041,-0.0197 0.0188,-0.0399 0.02469,-0.0601 0.0057,-0.0198 0.0098,-0.0417 0.01178,-0.0656 0.0043,-0.0525 0.05031,-0.0915 0.102729,-0.0872 0.0085,7.1e-4 0.01658,0.002 0.02427,0.005 l 0.167499,0.0466 c 0.01291,0.004 0.02441,0.01 0.03422,0.0175 h 1.05e-4 c 0.0025,0.002 0.926007,0.73169 0.816681,1.44208 l -0.100895,0.65599 c -0.0011,0.008 -0.0032,0.0147 -0.0059,0.0215 l -0.704497,2.19819 c -0.01602,0.0499 -0.0696,0.0774 -0.119592,0.0614 -0.0218,-0.007 -0.0393,-0.0211 -0.0508,-0.0389 -0.0877,-0.12361 -0.242605,-0.23029 -0.441007,-0.3066 -0.200096,-0.077 -0.443407,-0.12209 -0.70672,-0.12209 -0.234985,0 -0.45399,0.036 -0.640574,0.0985 -0.189124,0.0633 -0.344417,0.15339 -0.448204,0.26021 -0.03662,0.0376 -0.09691,0.0384 -0.134514,0.002 -0.0095,-0.009 -0.01658,-0.0199 -0.02138,-0.0314 m 2.392397,0.0996 c -0.01492,-0.0231 -0.01972,-0.0525 -0.01062,-0.0806 m -2.697798,-3.77332 c -0.100189,-0.11109 -0.227083,-0.25989 -0.322791,-0.39849 -0.07412,-0.10728 -0.130211,-0.21079 -0.144216,-0.29217 -0.043,-0.24892 -0.0684,-1.09552 -0.0684,-1.09781 -0.0018,-0.0525 0.03951,-0.0963 0.09201,-0.098 0.01221,-3.2e-4 0.02402,0.002 0.03493,0.006 0.06907,0.021 0.734166,0.231 0.90297,0.5776 0.07652,0.15699 0.1397,0.34678 0.185526,0.50518 -0.0629,0.0314 -0.11991,0.0663 -0.167499,0.10622 -0.0441,-0.1591 -0.109114,-0.36332 -0.189301,-0.528 -0.102305,-0.21001 -0.468312,-0.367 -0.664104,-0.43822 0.009,0.24641 0.0308,0.75681 0.06159,0.93549 0.0088,0.0514 0.0532,0.12972 0.112889,0.21622 0.06981,0.101 0.159597,0.21029 0.241794,0.30459 0.02381,-0.0229 0.04791,-0.0456 0.07183,-0.0677 0.0575,-0.0532 0.108691,-0.0982 0.153071,-0.13589 l 1.05e-4,2.1e-4 c 0.01683,-0.0142 0.03852,-0.0227 0.06213,-0.0225 l 0.0055,1.7e-4 c -0.01683,0.12623 0.0018,0.28081 0.0351,0.43343 -0.02604,0.005 -0.0539,-3.6e-4 -0.07652,-0.018 -0.01962,-0.0151 -0.03171,-0.0365 -0.0356,-0.0592 h -1.06e-4 c -0.0037,-0.0209 -0.007,-0.042 -0.0099,-0.0635 l -0.0049,0.004 c -0.04261,0.0394 -0.08862,0.0838 -0.137618,0.13338 -0.0368,0.0374 -0.09701,0.0379 -0.134409,0.001 l -0.004,-0.004 h -1.06e-4 z m -0.408481,-1.88097 c 0.03567,0.0128 0.06166,0.0464 0.06297,0.0865 m 2.793506,0.84137 c 0.08421,-0.23498 0.192405,-0.49956 0.268816,-0.55428 0.126895,-0.0906 0.803205,-0.3392 0.805074,-0.3399 0.04942,-0.0176 0.103823,0.008 0.121532,0.0574 0.0014,0.004 0.0028,0.008 0.0035,0.0127 h 1.77e-4 c 3.52e-4,0.002 0.159632,0.72499 -0.0035,0.99349 -0.0369,0.0608 -0.09758,0.15332 -0.168099,0.25813 -0.09271,0.13797 -0.202283,0.29739 -0.297709,0.43518 -0.02977,0.0431 -0.08908,0.054 -0.132186,0.0242 -0.0057,-0.004 -0.0108,-0.008 -0.01531,-0.0131 v 0 c -0.120298,-0.1276 -0.223273,-0.21573 -0.260703,-0.24663 l -0.06738,-0.0188 -7.05e-4,0.004 c -0.0075,0.0383 -0.0188,0.0761 -0.03411,0.11239 -0.02029,0.0483 -0.07599,0.071 -0.124389,0.0506 -0.01009,-0.004 -0.01909,-0.01 -0.02681,-0.017 0.08731,-0.0897 0.139629,-0.21019 0.12132,-0.36499 l 0.0071,0.002 0.194486,0.0541 -7e-5,1.8e-4 c 0.0121,0.003 0.0236,0.009 0.03397,0.0173 3.18e-4,1.8e-4 0.09292,0.0735 0.213924,0.19301 0.07818,-0.11342 0.160197,-0.23312 0.230682,-0.33804 0.0707,-0.10519 0.130316,-0.19568 0.163618,-0.25057 0.09169,-0.15099 0.03528,-0.55302 7.06e-4,-0.74772 -0.188313,0.0708 -0.573617,0.21922 -0.654932,0.27732 -0.05778,0.0413 -0.170498,0.35938 -0.246874,0.59217 -0.01841,-0.0419 -0.0411,-0.0857 -0.0689,-0.13148 -0.01743,-0.0286 -0.03891,-0.0485 -0.06322,-0.0614 z m -2.073205,2.11452 c 0.102094,0 0.194628,0.0414 0.261514,0.1083 0.06689,0.0669 0.108303,0.15932 0.108303,0.26141 0,0.10209 -0.04142,0.19459 -0.108303,0.26148 -0.06689,0.0669 -0.15942,0.1082 -0.261514,0.1082 -0.102094,0 -0.194486,-0.0413 -0.261373,-0.1082 -0.06692,-0.0669 -0.108303,-0.15939 -0.108303,-0.26148 0,-0.10209 0.04138,-0.19452 0.108303,-0.26141 0.06689,-0.0669 0.159279,-0.1083 0.261373,-0.1083 z m 0.126612,0.2431 c -0.03231,-0.0324 -0.07719,-0.0524 -0.126612,-0.0524 -0.04939,0 -0.09419,0.02 -0.126506,0.0524 -0.03238,0.0324 -0.05249,0.0772 -0.05249,0.12661 0,0.0494 0.02011,0.0942 0.05249,0.12658 0.03231,0.0324 0.07712,0.0524 0.126506,0.0524 0.04942,0 0.0943,-0.02 0.126612,-0.0524 0.03238,-0.0324 0.05249,-0.0772 0.05249,-0.12658 0,-0.0494 -0.02011,-0.0942 -0.05249,-0.12661 z m 2.278486,-0.2431 c 0.102129,0 0.194627,0.0414 0.261514,0.1083 0.06689,0.0669 0.108197,0.15932 0.108197,0.26141 0,0.10209 -0.04131,0.19459 -0.108197,0.26148 -0.06689,0.0669 -0.159385,0.1082 -0.261514,0.1082 -0.102094,0 -0.194486,-0.0413 -0.261373,-0.1082 -0.06692,-0.0669 -0.108303,-0.15939 -0.108303,-0.26148 0,-0.10209 0.04138,-0.19452 0.108303,-0.26141 0.06689,-0.0669 0.159279,-0.1083 0.261373,-0.1083 z m 0.126612,0.2431 c -0.03239,-0.0324 -0.07719,-0.0524 -0.126612,-0.0524 -0.04939,0 -0.09419,0.02 -0.126577,0.0524 -0.03231,0.0324 -0.05242,0.0772 -0.05242,0.12661 0,0.0494 0.02011,0.0942 0.05242,0.12658 0.03239,0.0324 0.07719,0.0524 0.126577,0.0524 0.04942,0 0.09423,-0.02 0.126612,-0.0524 0.03238,-0.0324 0.05239,-0.0772 0.05239,-0.12658 0,-0.0494 -0.02,-0.0942 -0.05239,-0.12661 z m -2.374583,-0.7021 c -0.0011,-0.003 -0.433105,-0.98139 -0.185525,-1.35269 l 1.06e-4,1.1e-4 c 0.136207,-0.20391 0.435609,-0.30301 0.713104,-0.39473 0.209903,-0.0694 0.405801,-0.13419 0.465209,-0.22027 0.159702,-0.23171 0.256504,-0.5461 0.256786,-0.54702 l 0.05599,-0.17508 0.110526,0.14718 c 7.05e-4,10e-4 0.351296,0.46171 0.248108,0.73 -0.01263,0.0327 -0.02501,0.064 -0.03701,0.0935 0.152082,-0.0666 0.331082,-0.0924 0.433176,0.0757 0.108726,0.17911 0.149401,0.33461 0.143404,0.4674 -0.0068,0.14781 -0.0696,0.26543 -0.161678,0.35553 -0.08781,0.086 -0.201613,0.14587 -0.316724,0.18238 -0.160373,0.0509 -0.3296,0.0572 -0.438397,0.0265 -0.04427,0.27961 0.0063,0.3151 0.187113,0.44139 0.0551,0.0386 0.120086,0.084 0.193181,0.14062 l 0.147426,0.11409 -0.179105,0.0524 c -0.0018,3.6e-4 -0.60519,0.17692 -0.956416,-0.23128 -0.135396,-0.1573 -0.223696,-0.27319 -0.280599,-0.35479 l -0.22659,0.45318 -0.0902,0.18062 z m -0.02692,-1.24689 c -0.133915,0.2009 0.02081,0.69959 0.123895,0.9767 l 0.207998,-0.4161 0.09472,-0.1893 0.07849,0.19628 c 1.06e-4,3.5e-4 0.04459,0.11162 0.345581,0.4614 0.154023,0.179 0.377613,0.21033 0.542219,0.20401 l -7.05e-4,-3.5e-4 c -0.25781,-0.18009 -0.329424,-0.2303 -0.265501,-0.62982 l 0.01048,-0.0702 c 0.01111,-0.0737 0.01602,-0.10368 0.05073,-0.13039 l -1.06e-4,-1e-4 c 0.07818,-0.0601 0.103576,-0.0273 0.146191,0.0276 0.0044,0.006 0.0121,0.0157 0.0224,0.0194 0.0725,0.0259 0.205387,0.0204 0.33849,-0.0219 0.08982,-0.0284 0.176706,-0.0733 0.240806,-0.13621 0.0599,-0.0586 0.100789,-0.1342 0.104987,-0.228 0.0044,-0.0977 -0.02847,-0.2171 -0.115782,-0.36089 -0.08442,-0.13903 -0.421287,0.1415 -0.422204,0.14227 l -0.341912,0.27781 0.197026,-0.39401 c 7e-5,-3.6e-4 0.07387,-0.14778 0.155998,-0.36149 0.03828,-0.0995 -0.04572,-0.27189 -0.12132,-0.39681 -0.0484,0.12012 -0.122096,0.28071 -0.216394,0.41751 -0.09588,0.13921 -0.320887,0.21361 -0.56201,0.2933 -0.247791,0.0819 -0.514985,0.17029 -0.614186,0.31899 v 3.5e-4 z"
       style="fill:#f6a31c;fill-opacity:1;fill-rule:nonzero;stroke:none;stroke-width:0.35277778"
       id="path1448"
       inkscape:connector-curvature="0" />
  </g>
</svg>
