<svg width="539" height="137" viewBox="0 0 539 137" fill="none" xmlns="http://www.w3.org/2000/svg">
<path d="M177.345 109.898C176.499 109.898 175.415 109.671 174.097 109.218V107.03C175.519 107.843 176.686 108.248 177.601 108.248C178.304 108.248 178.87 108.025 179.298 107.567C179.725 107.111 179.943 106.513 179.943 105.772C179.943 105.162 179.8 104.642 179.519 104.218C179.237 103.79 178.72 103.313 177.965 102.792L177.098 102.172C176.022 101.413 175.267 100.703 174.828 100.032C174.386 99.3663 174.166 98.5851 174.166 97.6977C174.166 96.5 174.522 95.5162 175.223 94.7434C175.929 93.966 176.824 93.5813 177.915 93.5813C178.884 93.5813 179.911 93.784 180.987 94.1808V96.1943C179.661 95.5526 178.671 95.2312 178.014 95.2312C177.398 95.2312 176.889 95.4342 176.482 95.8413C176.083 96.2426 175.88 96.7536 175.88 97.3704C175.88 97.89 176.025 98.351 176.321 98.7461C176.618 99.1432 177.156 99.6232 177.939 100.172L178.841 100.803C179.933 101.569 180.691 102.289 181.125 102.97C181.557 103.648 181.772 104.463 181.772 105.415C181.772 106.766 181.368 107.85 180.559 108.67C179.751 109.489 178.677 109.898 177.345 109.898" fill="#4F5050"/>
<path d="M195.387 108.248C196.673 108.248 197.671 107.678 198.373 106.534C199.08 105.387 199.433 103.772 199.433 101.687C199.433 99.6654 199.08 98.0801 198.37 96.9391C197.664 95.8027 196.688 95.2322 195.436 95.2322C194.182 95.2322 193.202 95.8027 192.5 96.9462C191.794 98.0905 191.445 99.6844 191.445 101.719C191.445 103.748 191.793 105.347 192.493 106.506C193.188 107.668 194.153 108.248 195.387 108.248V108.248ZM195.362 109.9C193.612 109.9 192.204 109.15 191.141 107.657C190.076 106.161 189.545 104.185 189.545 101.729C189.545 99.2593 190.08 97.2847 191.148 95.8024C192.218 94.3234 193.651 93.5813 195.435 93.5813C197.219 93.5813 198.648 94.319 199.72 95.7988C200.794 97.2741 201.329 99.2451 201.329 101.708C201.329 104.221 200.794 106.214 199.72 107.689C198.648 109.162 197.194 109.9 195.362 109.9" fill="#4F5050"/>
<path d="M209.85 109.509V93.9717H211.639V107.859H217.313V109.509H209.85Z" fill="#4F5050"/>
<path d="M225.068 93.9709H226.856V103.777C226.856 105.338 227.088 106.474 227.559 107.184C228.025 107.893 228.77 108.25 229.794 108.25C230.792 108.25 231.501 107.915 231.917 107.248C232.335 106.578 232.545 105.448 232.545 103.848V93.9709H234.109V103.819C234.109 105.937 233.758 107.483 233.052 108.449C232.346 109.415 231.219 109.901 229.676 109.901C228.104 109.901 226.939 109.398 226.19 108.396C225.442 107.399 225.068 105.847 225.068 103.756V93.9709Z" fill="#4F5050"/>
<path d="M248.201 109.509H249.023L248.513 110.653C248.959 110.653 249.345 110.822 249.672 111.152C250.004 111.487 250.168 111.875 250.168 112.321C250.168 112.805 250.001 113.213 249.67 113.548C249.337 113.879 248.931 114.043 248.454 114.043C248.047 114.043 247.634 113.973 247.213 113.828V112.975C247.473 113.083 247.772 113.137 248.108 113.137C248.396 113.137 248.614 113.07 248.76 112.942C248.91 112.814 248.984 112.615 248.984 112.357C248.984 112.022 248.853 111.773 248.582 111.602C248.314 111.432 247.919 111.353 247.391 111.353L248.201 109.515V109.509ZM248.67 109.898C246.71 109.898 245.196 109.19 244.126 107.774C243.064 106.355 242.527 104.349 242.527 101.75C242.527 99.1618 243.076 97.1522 244.159 95.7262C245.245 94.2931 246.778 93.5809 248.753 93.5809C249.886 93.5809 251.208 93.8128 252.724 94.2662V96.3357C250.995 95.5981 249.665 95.2313 248.728 95.2313C247.363 95.2313 246.3 95.8008 245.552 96.9418C244.804 98.0828 244.426 99.6944 244.426 101.771C244.426 103.753 244.829 105.314 245.627 106.462C246.429 107.607 247.524 108.177 248.906 108.177C250.1 108.177 251.379 107.724 252.738 106.822V108.712C251.497 109.503 250.14 109.898 248.67 109.898Z" fill="#4F5050"/>
<path d="M263.672 92.6693C263.701 91.853 263.847 91.2358 264.111 90.823C264.374 90.4175 264.756 90.2134 265.245 90.2134C265.662 90.2134 266.045 90.346 266.4 90.6149L266.909 90.9992C267.227 91.2474 267.468 91.3719 267.639 91.3719C267.831 91.3719 267.985 91.2723 268.097 91.082C268.206 90.8917 268.274 90.6017 268.295 90.217H269.343C269.31 91.0332 269.161 91.6498 268.901 92.0557C268.641 92.4653 268.263 92.6723 267.767 92.6723C267.354 92.6723 266.97 92.5358 266.617 92.2627L266.11 91.8739C265.79 91.6339 265.544 91.5184 265.376 91.5184C265.184 91.5184 265.03 91.6133 264.92 91.8077C264.806 91.998 264.741 92.2873 264.72 92.6733H263.672V92.6693ZM266.456 108.248C267.747 108.248 268.74 107.678 269.447 106.534C270.149 105.387 270.502 103.772 270.502 101.687C270.502 99.6654 270.149 98.0834 269.439 96.9391C268.733 95.8027 267.758 95.2312 266.51 95.2312C265.252 95.2312 264.275 95.8027 263.569 96.9462C262.863 98.0905 262.513 99.6832 262.513 101.719C262.513 103.747 262.86 105.347 263.562 106.506C264.261 107.668 265.226 108.248 266.456 108.248V108.248ZM266.431 109.9C264.681 109.9 263.277 109.15 262.21 107.657C261.146 106.16 260.614 104.186 260.614 101.729C260.614 99.2593 261.149 97.2846 262.221 95.8023C263.291 94.3225 264.72 93.5813 266.51 93.5813C268.292 93.5813 269.717 94.3192 270.79 95.7978C271.866 97.2743 272.401 99.2451 272.401 101.708C272.401 104.221 271.866 106.214 270.79 107.689C269.717 109.161 268.263 109.9 266.431 109.9" fill="#4F5050"/>
<path d="M280.92 109.509V93.9717H287.967V95.6185H282.71V100.606H287.111V102.234H282.71V107.859H288.33V109.509H280.92Z" fill="#4F5050"/>
<path d="M298.862 109.898C298.018 109.898 296.934 109.671 295.618 109.218V107.03C297.034 107.843 298.203 108.248 299.115 108.248C299.822 108.248 300.388 108.025 300.816 107.567C301.246 107.111 301.461 106.513 301.461 105.772C301.461 105.162 301.318 104.642 301.036 104.218C300.755 103.79 300.238 103.313 299.483 102.792L298.617 102.172C297.544 101.413 296.784 100.703 296.346 100.032C295.905 99.3663 295.683 98.5851 295.683 97.6977C295.683 96.5 296.036 95.5162 296.742 94.7434C297.448 93.966 298.343 93.5813 299.434 93.5813C300.405 93.5813 301.428 93.784 302.505 94.1808V96.1943C301.175 95.5526 300.189 95.2312 299.533 95.2312C298.916 95.2312 298.406 95.4342 298.004 95.8413C297.6 96.2426 297.398 96.7536 297.398 97.3704C297.398 97.89 297.544 98.351 297.84 98.7461C298.135 99.1432 298.674 99.6232 299.458 100.172L300.36 100.803C301.454 101.569 302.209 102.289 302.644 102.97C303.075 103.648 303.289 104.463 303.289 105.415C303.289 106.766 302.887 107.85 302.074 108.67C301.269 109.489 300.196 109.898 298.862 109.898Z" fill="#4F5050"/>
<path d="M329.723 103.568L327.577 96.8674L325.424 103.568H329.723ZM331.612 109.509L330.244 105.204H324.904L323.518 109.509H321.857L326.853 93.9717H328.624L333.547 109.509H331.612Z" fill="#4F5050"/>
<path d="M350.858 109.088C349.328 109.625 348 109.901 346.866 109.901C344.859 109.901 343.323 109.195 342.255 107.788C341.18 106.38 340.646 104.365 340.646 101.739C340.646 99.1649 341.189 97.1586 342.275 95.7288C343.358 94.3007 344.877 93.5805 346.837 93.5805C348.12 93.5805 349.454 93.8205 350.84 94.2855V96.3243C349.105 95.5937 347.771 95.2304 346.848 95.2304C345.483 95.2304 344.424 95.8004 343.673 96.9414C342.921 98.0815 342.546 99.6892 342.546 101.76C342.546 103.813 342.949 105.406 343.755 106.543C344.56 107.68 345.693 108.251 347.144 108.251C347.743 108.251 348.388 108.123 349.08 107.858V102.799H350.858V109.087V109.088Z" fill="#4F5050"/>
<path d="M361.781 101.287H362.361C364.611 101.287 365.731 100.2 365.731 98.0239C365.731 96.4221 364.793 95.6161 362.903 95.6161H361.781V101.287ZM360.009 109.51V93.9692H363.823C365.035 93.9692 365.962 94.2963 366.607 94.957C367.248 95.6136 367.573 96.5715 367.573 97.8229C367.573 99.8939 366.725 101.362 365.024 102.236L369.233 109.51H367.038L363.453 102.937H361.781V109.51H360.009Z" fill="#4F5050"/>
<path d="M382.157 108.248C383.445 108.248 384.442 107.678 385.147 106.534C385.85 105.387 386.203 103.772 386.203 101.687C386.203 99.6654 385.85 98.0801 385.14 96.9391C384.434 95.8027 383.454 95.2322 382.211 95.2322C380.952 95.2322 379.976 95.8027 379.266 96.9462C378.564 98.0905 378.214 99.6844 378.214 101.719C378.214 103.748 378.561 105.347 379.262 106.506C379.962 107.668 380.923 108.248 382.157 108.248V108.248ZM382.132 109.9C380.382 109.9 378.974 109.15 377.911 107.657C376.846 106.161 376.311 104.185 376.311 101.729C376.311 99.2593 376.85 97.2847 377.923 95.8024C378.988 94.3234 380.421 93.5813 382.21 93.5813C383.993 93.5813 385.418 94.319 386.491 95.7988C387.567 97.2741 388.102 99.2451 388.102 101.708C388.102 104.221 387.567 106.214 386.491 107.689C385.418 109.162 383.963 109.9 382.132 109.9" fill="#4F5050"/>
<path d="M398.394 101.667H399.119C400.18 101.667 401 101.365 401.581 100.762C402.162 100.16 402.45 99.3109 402.45 98.2097C402.45 97.2821 402.223 96.6162 401.767 96.2174C401.314 95.8161 400.554 95.6185 399.496 95.6185H398.394V101.667ZM396.623 109.508V93.9717H400.056C401.578 93.9717 402.667 94.2861 403.335 94.9191C403.998 95.5537 404.332 96.5954 404.332 98.0425C404.332 99.696 403.876 100.993 402.968 101.927C402.059 102.868 400.8 103.336 399.189 103.336H398.394V109.508H396.623Z" fill="#4F5050"/>
<path d="M412.28 109.509V93.9717H419.325V95.6185H414.069V100.606H418.471V102.234H414.069V107.859H419.69V109.509H412.28Z" fill="#4F5050"/>
<path d="M433.154 109.898C431.193 109.898 429.678 109.189 428.612 107.771C427.546 106.356 427.009 104.346 427.009 101.75C427.009 99.1598 427.558 97.1526 428.641 95.7241C429.727 94.2943 431.261 93.5813 433.236 93.5813C434.369 93.5813 435.691 93.809 437.206 94.2616V96.3336C435.477 95.5948 434.148 95.2312 433.214 95.2312C431.845 95.2312 430.783 95.8027 430.034 96.9392C429.286 98.0835 428.912 99.6946 428.912 101.773C428.912 103.75 429.311 105.315 430.11 106.46C430.912 107.604 432.006 108.178 433.388 108.178C434.583 108.178 435.862 107.724 437.223 106.822V108.712C435.98 109.503 434.622 109.898 433.154 109.898" fill="#4F5050"/>
<path d="M445.733 93.9709H447.523V103.777C447.523 105.338 447.754 106.474 448.225 107.184C448.691 107.893 449.436 108.25 450.459 108.25C451.458 108.25 452.167 107.915 452.583 107.248C453.001 106.578 453.211 105.448 453.211 103.848V93.9709H454.775V103.819C454.775 105.937 454.423 107.483 453.716 108.449C453.012 109.415 451.884 109.901 450.341 109.901C448.77 109.901 447.604 109.398 446.856 108.396C446.107 107.399 445.733 105.847 445.733 103.756V93.9709Z" fill="#4F5050"/>
<path d="M467.08 92.6693L469.134 89.3014H471.076L468.342 92.6693H467.08ZM470.324 103.569L468.182 96.8674L466.025 103.569H470.324ZM472.213 109.51L470.848 105.205H465.509L464.119 109.51H462.458L467.454 93.9707H469.23L474.148 109.51H472.213Z" fill="#4F5050"/>
<path d="M483.76 101.287H484.341C486.591 101.287 487.709 100.2 487.709 98.0239C487.709 96.4221 486.771 95.6161 484.883 95.6161H483.76V101.287ZM481.989 109.51V93.9692H485.802C487.014 93.9692 487.941 94.2963 488.586 94.957C489.228 95.6136 489.553 96.5715 489.553 97.8229C489.553 99.8939 488.704 101.362 487.003 102.236L491.213 109.51H489.017L485.432 102.937H483.76V109.51H481.989Z" fill="#4F5050"/>
<path d="M499.027 93.9717H500.817V109.509H499.027V93.9717Z" fill="#4F5050"/>
<path d="M516.462 103.568L514.315 96.8674L512.164 103.568H516.462ZM518.351 109.509L516.982 105.204H511.643L510.257 109.509H508.596L513.592 93.9717H515.364L520.287 109.509H518.351Z" fill="#4F5050"/>
<path d="M530.597 109.898C529.753 109.898 528.668 109.671 527.353 109.218V107.03C528.769 107.843 529.938 108.248 530.849 108.248C531.556 108.248 532.123 108.025 532.55 107.567C532.981 107.111 533.196 106.513 533.196 105.772C533.196 105.162 533.053 104.642 532.771 104.218C532.49 103.79 531.973 103.313 531.217 102.792L530.351 102.172C529.278 101.413 528.519 100.703 528.081 100.032C527.638 99.3663 527.418 98.5851 527.418 97.6977C527.418 96.5 527.771 95.5162 528.476 94.7434C529.182 93.966 530.076 93.5813 531.167 93.5813C532.14 93.5813 533.163 93.784 534.24 94.1808V96.1943C532.91 95.5526 531.924 95.2312 531.267 95.2312C530.65 95.2312 530.141 95.4342 529.738 95.8413C529.335 96.2426 529.132 96.7536 529.132 97.3704C529.132 97.89 529.278 98.351 529.573 98.7461C529.87 99.1432 530.408 99.6232 531.193 100.172L532.095 100.803C533.189 101.569 533.944 102.289 534.379 102.97C534.81 103.648 535.024 104.463 535.024 105.415C535.024 106.766 534.621 107.85 533.809 108.67C533.003 109.489 531.931 109.898 530.597 109.898" fill="#4F5050"/>
<path d="M498.758 38.6363C502.138 35.258 506.195 33.5661 510.927 33.5661C515.685 33.5661 519.741 35.258 523.095 38.6363C526.475 41.9902 528.164 46.0467 528.164 50.8055C528.164 55.5387 526.475 59.5919 523.095 62.9752C519.741 66.3291 515.685 68.0035 510.927 68.0035C506.195 68.0035 502.138 66.3291 498.758 62.9752C495.408 59.5919 493.73 55.5387 493.73 50.8055C493.73 46.0467 495.408 41.9902 498.758 38.6363ZM482.966 50.8055C482.966 58.5256 485.696 65.1165 491.156 70.5766C496.612 76.0378 503.206 78.7678 510.927 78.7678C518.676 78.7678 525.277 76.0378 530.741 70.5766C536.201 65.1165 538.933 58.5256 538.933 50.8055C538.933 43.0564 536.201 36.4516 530.741 30.9915C525.277 25.5302 518.676 22.8043 510.927 22.8043C503.206 22.8043 496.612 25.5302 491.156 30.9915C485.696 36.4516 482.966 43.0564 482.966 50.8055Z" fill="#581518"/>
<path d="M185.007 33.5661H200.609C202.533 33.5661 204.183 34.2531 205.562 35.6336C206.914 36.9843 207.587 38.6238 207.587 40.5483C207.587 42.4985 206.914 44.1483 205.562 45.4994C204.183 46.8783 202.533 47.5669 200.609 47.5669H185.007V33.5661ZM185.007 58.3306H191.169L206.497 78.7678H219.951L204.315 57.9418C208.367 57.0834 211.711 55.0402 214.337 51.8191C217.011 48.5434 218.35 44.7863 218.35 40.5483C218.35 35.6579 216.623 31.4878 213.165 28.0272C209.679 24.5442 205.495 22.8018 200.609 22.8018H174.243V78.7678H185.007V58.3306Z" fill="#581518"/>
<path d="M388.704 78.7271V41.6474L414.581 78.7701H425.284V22.803H414.521V59.102L388.644 22.803H377.937V78.7271H388.704Z" fill="#581518"/>
<path d="M286.252 54.0019H301.849C303.774 54.0019 305.425 54.6934 306.804 56.0689C308.158 57.4482 308.832 59.098 308.832 61.0226C308.832 62.9479 308.158 64.5844 306.804 65.9388C305.425 67.3144 303.774 68.0013 301.849 68.0013H286.252V54.0019ZM286.252 33.5673H301.849C303.175 33.5673 304.319 34.0339 305.282 34.9722C306.22 35.9341 306.686 37.0748 306.686 38.4032C306.686 39.7544 306.22 40.899 305.282 41.8327C304.319 42.7706 303.175 43.2377 301.849 43.2377H286.252V33.5673ZM275.484 78.7701H301.849C306.739 78.7701 310.924 77.0229 314.406 73.5412C317.863 70.0839 319.592 65.9092 319.592 61.0226C319.592 55.9262 317.75 51.6234 314.057 48.1135C316.32 45.2805 317.451 42.0434 317.451 38.4032C317.451 34.1123 315.929 30.4339 312.887 27.3663C309.844 24.3251 306.166 22.803 301.849 22.803H275.484V78.7701Z" fill="#581518"/>
<path d="M226.191 78.769H269.248V68.0013H236.955V56.1891H259.536V45.4244H236.955V33.5663H269.248V22.802H226.191V78.769Z" fill="#581518"/>
<path d="M431.524 22.803V78.7701H442.288V56.1866H465.959V78.7701H476.727V22.803H465.959V45.4223H442.288V22.803H431.524Z" fill="#581518"/>
<path d="M339.054 60.0893L345.648 44.0396L352.235 60.0893H339.054ZM348.718 22.803H342.573L319.596 78.7701H331.374L334.258 71.7373H357.033L359.92 78.7701H371.696L348.718 22.803Z" fill="#581518"/>
<path fill-rule="evenodd" clip-rule="evenodd" d="M21.255 20.2198L23.8745 23.4024L43.4141 47.3049C43.8891 47.8832 44.4439 48.3777 45.057 48.7765L45.6411 108.496H57.6356L56.9976 49.9329L82.1119 49.8915C91.0549 49.8915 95.5242 54.0759 95.5242 62.4384C95.5242 66.5581 94.1159 69.7266 91.3003 71.9477C88.8164 73.8437 85.7545 74.7879 82.1119 74.7879H76.6225C72.862 74.7879 70.8132 79.1901 73.2334 82.0666L76.8442 86.3541H76.8972L101.876 116.055C92.0565 122.892 80.0269 126.748 67.0887 126.32C36.7953 125.311 12.2942 100.693 11.4184 70.3963C11.0688 58.1859 14.5398 46.7839 20.7176 37.3027L13.7165 28.9938C5.81394 39.9718 1.0924 53.3887 0.917818 67.8774C0.467709 105.284 30.6117 136.275 68.0187 136.831C87.1454 137.112 104.523 129.469 117.074 116.975L114.066 113.41L114.201 113.311L92.3697 87.6025C91.3329 86.3824 91.7106 84.49 93.1615 83.8124C96.5116 82.2482 99.2558 79.9923 101.402 77.0443C104.385 72.9916 105.875 68.159 105.875 62.5384C105.875 54.3049 103.309 48.0658 98.1756 43.8183C93.703 40.0937 87.8256 38.2294 80.5407 38.2294H54.7132C52.3679 38.2294 50.148 37.1637 48.6818 35.3352L37.0229 20.796C46.5231 14.4308 58.0026 10.8025 70.3321 11.0731C101.273 11.7532 126.323 37.0779 126.683 68.0228C126.822 79.75 123.436 90.6925 117.527 99.856L124.459 108.289C132.457 97.1262 137.169 83.457 137.169 68.7081C137.169 53.0644 132.141 35.3785 116.4 19.784C100.542 4.07322 81.3313 1.69156 81.3313 1.69156C81.3313 1.69156 78.5015 1.17539 75.4968 0.889104C72.6133 0.61606 69.5656 0.574989 69.0422 0.574989C50.4397 0.574989 33.5589 8.07449 21.255 20.2001V20.2198Z" fill="url(#paint0_linear)"/>
<defs>
<linearGradient id="paint0_linear" x1="1.35721" y1="68.7125" x2="137.176" y2="68.7125" gradientUnits="userSpaceOnUse">
<stop stop-color="#F6A21C"/>
<stop offset="1" stop-color="#691717"/>
</linearGradient>
</defs>
</svg>
